<svg width="84" height="84" viewBox="0 0 84 84" fill="none" xmlns="http://www.w3.org/2000/svg">
<rect width="84" height="84.001" rx="8" fill="white"/>
<path d="M41.8381 43.4209C42.216 43.4209 42.5278 46.2293 42.6057 49.9824C45.3862 47.3825 47.6476 45.6124 47.9152 45.8721C48.1821 46.1325 46.3622 48.3326 43.6916 51.04C47.5459 51.116 50.4307 51.4212 50.4328 51.7891C50.4328 52.1571 47.5473 52.4603 43.6916 52.5361C46.3632 55.2446 48.1824 57.4467 47.9152 57.707C47.6471 57.9663 45.3865 56.1951 42.6057 53.5947C42.5278 57.3488 42.2161 60.1582 41.8381 60.1582C41.4601 60.1577 41.1465 57.348 41.0685 53.5938C38.2882 56.1938 36.0293 57.9659 35.7609 57.707C35.4937 57.4468 37.3114 55.2444 39.9826 52.5361C36.1278 52.4603 33.2433 52.157 33.2433 51.7891C33.2454 51.4213 36.1287 51.1161 39.9816 51.04C37.3122 48.3334 35.4947 46.133 35.7609 45.8721C36.0296 45.6136 38.2889 47.3843 41.0685 49.9834C41.1465 46.2301 41.4601 43.4214 41.8381 43.4209Z" fill="black"/>
<path d="M63.6318 9C64.9398 9 65.9999 10.0602 66 11.3682C66 12.6762 64.9399 13.7373 63.6318 13.7373H22.8652V31.2422L25.9375 34.2686C30.191 30.5357 35.8229 28.2637 42 28.2637C55.2548 28.2637 65.9998 38.7259 66 51.6318C65.9998 64.5378 55.2548 75.001 42 75.001L41.3809 74.9932C28.4123 74.6733 18.0002 64.3362 18 51.6318C18.0001 45.0855 20.7653 39.1682 25.2197 34.9258C24.2882 35.8045 23.4283 36.7554 22.6523 37.7705L18.6367 33.8154L18.6406 33.8115C18.2773 33.4261 18.0454 32.9233 18.0078 32.3682H18V11.2109H18.0078C18.0889 9.97649 19.1132 9.00014 20.3682 9H63.6318ZM42 33.0283C31.256 33.0284 22.7648 41.4762 22.7646 51.6318C22.7648 61.7875 31.2559 70.2363 42 70.2363C52.7441 70.2363 61.2362 61.7875 61.2363 51.6318C61.2361 41.4762 52.7441 33.0283 42 33.0283Z" fill="black"/>
</svg>
