<svg width="488" height="690" viewBox="0 0 488 690" fill="none" xmlns="http://www.w3.org/2000/svg">
<path fill-rule="evenodd" clip-rule="evenodd" d="M242.353 359.854C246.192 359.857 249.399 389.18 250.194 428.379C278.441 401.223 301.417 382.759 304.134 385.476C306.849 388.194 288.404 411.201 261.279 439.485C300.437 440.281 329.73 443.493 329.73 447.338C329.73 451.183 300.436 454.393 261.278 455.188C288.406 483.476 306.854 506.487 304.138 509.206C301.422 511.923 278.442 493.456 250.193 466.298C249.398 505.5 246.193 534.826 242.353 534.829C238.513 534.829 235.304 505.498 234.51 466.289C206.258 493.45 183.278 511.92 180.562 509.202C177.847 506.484 196.292 483.474 223.418 455.188C184.263 454.392 154.974 451.182 154.973 447.338C154.973 443.494 184.261 440.282 223.415 439.485C196.294 411.205 177.854 388.2 180.566 385.479C183.281 382.761 206.26 401.227 234.51 428.386C235.305 389.181 238.514 359.854 242.353 359.854Z" fill="#359D69"/>
<path d="M463.239 0C476.914 0 488 11.0858 488 24.7607C488 38.4356 476.914 49.5215 463.239 49.5215H49.46V232.533L80.6992 264.168C123.943 225.144 181.201 201.39 244 201.39L245.578 201.395C379.609 202.245 488 311.296 488 445.694L487.995 447.274C487.146 581.473 378.231 689.999 244 689.999L242.422 689.994C108.391 689.144 0 580.093 0 445.694C0.000147019 376.883 28.4142 314.717 74.1348 270.314C64.3773 279.7 55.3974 289.89 47.3027 300.779L6.47559 259.434L6.51074 259.396C2.8161 255.366 0.437219 250.108 0.0556641 244.304H0V23.1084H0.0566406C0.906881 10.2039 11.6411 7.04132e-05 24.7607 0H463.239ZM244 252.572C137.57 252.572 51.1829 338.976 51.1826 445.694C51.1826 552.413 137.57 638.817 244 638.817C350.43 638.817 436.817 552.413 436.817 445.694C436.817 338.976 350.43 252.572 244 252.572Z" fill="#359D69"/>
</svg>
