<svg width="32" height="46" viewBox="0 0 32 46" fill="none" xmlns="http://www.w3.org/2000/svg">
<path d="M15.8921 23.5679C16.1442 23.5679 16.3503 25.493 16.4019 28.0649C18.257 26.2828 19.7652 25.0687 19.9438 25.2466C20.1203 25.4264 18.9042 26.9323 17.1226 28.7866C19.6946 28.8381 21.62 29.0453 21.6216 29.2974C21.6216 29.5495 19.6957 29.7557 17.1226 29.8071C18.9049 31.6621 20.1206 33.1695 19.9438 33.3491C19.765 33.5267 18.257 32.3119 16.4019 30.5298C16.3503 33.1021 16.1442 35.0278 15.8921 35.0278C15.6399 35.0277 15.4328 33.1011 15.3813 30.5278C13.5268 32.3097 12.0201 33.5266 11.8403 33.3501C11.6625 33.1715 12.8774 31.6624 14.6597 29.8071C12.0877 29.7556 10.1626 29.5494 10.1626 29.2974C10.1641 29.0454 12.0887 28.8382 14.6597 28.7866C12.878 26.9319 11.6628 25.4244 11.8403 25.2456C12.0199 25.0689 13.5271 26.2844 15.3813 28.0659C15.4329 25.4935 15.64 23.568 15.8921 23.5679Z" fill="#333333"/>
<path d="M30.3789 0C31.2744 0.000132272 32 0.726547 32 1.62207C31.9998 2.5174 31.2743 3.24303 30.3789 3.24316H3.24316V15.2285L5.29199 17.3008C8.12759 14.7451 11.8821 13.1895 16 13.1895C24.8366 13.1895 31.9999 20.3529 32 29.1895C32 38.0261 24.8366 45.1895 16 45.1895C7.16343 45.1894 0 38.026 0 29.1895C4.49088e-05 24.6867 1.86094 20.6194 4.85449 17.7119C4.21763 18.3246 3.63024 18.9889 3.10156 19.6992L0.424805 16.9912L0.426758 16.9883C0.1846 16.7244 0.0308791 16.38 0.00585938 16H0V1.51367H0.00585938C0.0614949 0.668475 0.762796 0 1.62207 0H30.3789ZM16 17.1719C9.3627 17.172 3.98251 22.5522 3.98242 29.1895C3.98242 35.8268 9.36264 41.2079 16 41.208C22.6374 41.208 28.0186 35.8269 28.0186 29.1895C28.0185 22.5521 22.6374 17.1719 16 17.1719Z" fill="#333333"/>
</svg>
