<svg width="600" height="500" viewBox="0 0 600 500" fill="none" xmlns="http://www.w3.org/2000/svg">
<rect width="600" height="500" rx="10.0982" fill="#F4F1ED"/>
<g opacity="0.33">
<rect x="67.3195" y="257.503" width="78.1776" height="7.34912" rx="3.67456" stroke="black" stroke-width="0.639054"/>
<circle cx="70.9941" cy="261.177" r="3.67456" stroke="black" stroke-width="0.639054"/>
<path d="M70.9946 257.183V264.601" stroke="black" stroke-width="0.639054"/>
<circle cx="141.823" cy="261.177" r="3.67456" stroke="black" stroke-width="0.639054"/>
<path d="M141.823 257.183V264.601" stroke="black" stroke-width="0.639054"/>
<rect x="67.3198" y="225.55" width="78.1776" height="7.34912" rx="3.67456" stroke="black" stroke-width="0.639054"/>
<circle cx="70.9943" cy="229.225" r="3.67456" stroke="black" stroke-width="0.639054"/>
<path d="M70.9949 225.231V232.648" stroke="black" stroke-width="0.639054"/>
<circle cx="141.823" cy="229.225" r="3.67456" stroke="black" stroke-width="0.639054"/>
<path d="M141.823 225.231V232.648" stroke="black" stroke-width="0.639054"/>
<circle cx="106.408" cy="296.591" r="39.0888" stroke="black" stroke-width="0.639054"/>
<circle cx="106.409" cy="296.592" r="31.6332" stroke="black" stroke-width="0.639054"/>
<rect x="182.137" y="257.503" width="78.1776" height="7.34912" rx="3.67456" stroke="black" stroke-width="0.639054"/>
<circle cx="185.812" cy="261.177" r="3.67456" stroke="black" stroke-width="0.639054"/>
<path d="M185.813 257.183V264.601" stroke="black" stroke-width="0.639054"/>
<circle cx="256.641" cy="261.177" r="3.67456" stroke="black" stroke-width="0.639054"/>
<path d="M256.642 257.183V264.601" stroke="black" stroke-width="0.639054"/>
<mask id="path-19-inside-1_207_2062" fill="white">
<path d="M221.494 282.746C222.114 282.747 222.63 287.477 222.758 293.8C227.321 289.419 231.032 286.441 231.47 286.879C231.908 287.318 228.927 291.028 224.545 295.591C230.872 295.72 235.605 296.238 235.606 296.858C235.606 297.478 230.872 297.995 224.544 298.123C228.927 302.686 231.908 306.398 231.47 306.837C231.031 307.275 227.32 304.295 222.758 299.915C222.63 306.238 222.114 310.969 221.494 310.97C220.873 310.969 220.356 306.236 220.228 299.909C215.663 304.292 211.951 307.276 211.512 306.837C211.074 306.399 214.055 302.686 218.437 298.123C212.112 297.994 207.38 297.478 207.38 296.858C207.381 296.238 212.112 295.72 218.435 295.591C214.054 291.029 211.075 287.319 211.512 286.879C211.952 286.441 215.664 289.423 220.228 293.806C220.356 287.48 220.873 282.746 221.494 282.746Z"/>
</mask>
<path d="M221.494 282.746L221.495 282.213L221.493 282.213L221.494 282.746ZM222.758 293.8L222.226 293.811L222.251 295.026L223.127 294.184L222.758 293.8ZM231.47 286.879L231.847 286.503L231.847 286.503L231.47 286.879ZM224.545 295.591L224.161 295.222L223.319 296.099L224.535 296.124L224.545 295.591ZM235.606 296.858L236.139 296.858V296.857L235.606 296.858ZM224.544 298.123L224.534 297.59L223.318 297.615L224.16 298.491L224.544 298.123ZM231.47 306.837L231.846 307.215L231.847 307.213L231.47 306.837ZM222.758 299.915L223.127 299.53L222.251 298.689L222.226 299.904L222.758 299.915ZM221.494 310.97L221.493 311.503L221.495 311.503L221.494 310.97ZM220.228 299.909L220.76 299.898L220.736 298.683L219.859 299.525L220.228 299.909ZM211.512 306.837L211.136 307.214L211.136 307.214L211.512 306.837ZM218.437 298.123L218.821 298.491L219.663 297.615L218.448 297.59L218.437 298.123ZM207.38 296.858L206.848 296.857V296.858L207.38 296.858ZM218.435 295.591L218.446 296.124L219.661 296.099L218.819 295.222L218.435 295.591ZM211.512 286.879L211.136 286.502L211.135 286.504L211.512 286.879ZM220.228 293.806L219.859 294.19L220.736 295.032L220.76 293.817L220.228 293.806ZM221.494 282.746L221.492 283.278C221.349 283.278 221.263 283.207 221.24 283.185C221.219 283.165 221.225 283.163 221.248 283.207C221.294 283.295 221.353 283.458 221.419 283.715C221.547 284.223 221.671 284.983 221.781 285.962C222.001 287.913 222.162 290.659 222.226 293.811L222.758 293.8L223.291 293.789C223.226 290.619 223.065 287.838 222.84 285.843C222.727 284.849 222.598 284.031 222.451 283.453C222.379 283.169 222.295 282.913 222.193 282.716C222.143 282.619 222.074 282.508 221.977 282.416C221.878 282.322 221.716 282.214 221.495 282.213L221.494 282.746ZM222.758 293.8L223.127 294.184C225.402 292 227.457 290.173 228.993 288.949C229.763 288.335 230.388 287.885 230.838 287.617C231.066 287.481 231.224 287.409 231.317 287.379C231.365 287.364 231.367 287.37 231.338 287.369C231.306 287.368 231.195 287.357 231.094 287.256L231.47 286.879L231.847 286.503C231.691 286.347 231.499 286.307 231.362 286.304C231.229 286.301 231.102 286.33 230.997 286.363C230.786 286.43 230.546 286.552 230.293 286.702C229.781 287.007 229.111 287.493 228.329 288.116C226.759 289.367 224.677 291.219 222.389 293.416L222.758 293.8ZM231.47 286.879L231.093 287.256C230.992 287.154 230.981 287.043 230.98 287.011C230.98 286.982 230.985 286.984 230.97 287.032C230.941 287.126 230.868 287.283 230.732 287.512C230.464 287.961 230.013 288.587 229.399 289.357C228.174 290.892 226.346 292.948 224.161 295.222L224.545 295.591L224.93 295.96C227.127 293.672 228.979 291.591 230.232 290.021C230.855 289.239 231.342 288.569 231.647 288.057C231.797 287.804 231.919 287.564 231.986 287.353C232.019 287.248 232.048 287.121 232.045 286.988C232.042 286.851 232.003 286.659 231.847 286.503L231.47 286.879ZM224.545 295.591L224.535 296.124C227.689 296.188 230.436 296.349 232.388 296.569C233.367 296.68 234.129 296.804 234.636 296.933C234.894 296.998 235.057 297.058 235.144 297.103C235.189 297.126 235.186 297.132 235.166 297.111C235.144 297.088 235.074 297.002 235.073 296.859L235.606 296.858L236.139 296.857C236.138 296.637 236.03 296.473 235.936 296.375C235.843 296.278 235.733 296.209 235.636 296.158C235.439 296.056 235.183 295.972 234.898 295.9C234.32 295.753 233.502 295.623 232.508 295.511C230.511 295.285 227.729 295.123 224.556 295.059L224.545 295.591ZM235.606 296.858L235.073 296.858C235.073 296.715 235.144 296.628 235.166 296.605C235.186 296.584 235.189 296.59 235.144 296.613C235.057 296.658 234.894 296.718 234.636 296.783C234.129 296.912 233.368 297.035 232.388 297.146C230.436 297.366 227.688 297.526 224.534 297.59L224.544 298.123L224.555 298.655C227.728 298.591 230.511 298.429 232.508 298.204C233.503 298.092 234.32 297.962 234.898 297.815C235.183 297.743 235.439 297.66 235.636 297.558C235.733 297.507 235.844 297.438 235.936 297.341C236.031 297.242 236.139 297.079 236.139 296.858L235.606 296.858ZM224.544 298.123L224.16 298.491C226.345 300.767 228.174 302.823 229.398 304.359C230.013 305.129 230.464 305.755 230.731 306.205C230.868 306.433 230.941 306.591 230.97 306.684C230.985 306.732 230.98 306.735 230.98 306.706C230.981 306.674 230.992 306.563 231.093 306.461L231.47 306.837L231.847 307.213C232.003 307.057 232.042 306.866 232.045 306.729C232.048 306.595 232.019 306.468 231.986 306.364C231.919 306.153 231.797 305.912 231.647 305.66C231.342 305.147 230.855 304.477 230.231 303.695C228.979 302.124 227.126 300.042 224.929 297.754L224.544 298.123ZM231.47 306.837L231.094 306.46C231.196 306.359 231.307 306.348 231.339 306.347C231.367 306.347 231.365 306.353 231.317 306.337C231.223 306.308 231.066 306.235 230.838 306.099C230.388 305.831 229.763 305.38 228.992 304.766C227.457 303.542 225.402 301.714 223.127 299.53L222.758 299.915L222.389 300.299C224.677 302.495 226.758 304.347 228.328 305.599C229.111 306.223 229.781 306.709 230.293 307.014C230.545 307.164 230.785 307.286 230.996 307.353C231.101 307.386 231.228 307.415 231.362 307.412C231.498 307.409 231.69 307.37 231.846 307.215L231.47 306.837ZM222.758 299.915L222.226 299.904C222.162 303.056 222.001 305.802 221.781 307.753C221.671 308.732 221.547 309.493 221.419 310C221.353 310.258 221.294 310.421 221.248 310.509C221.225 310.553 221.219 310.551 221.24 310.531C221.263 310.509 221.349 310.438 221.492 310.438L221.494 310.97L221.495 311.503C221.716 311.502 221.878 311.394 221.977 311.3C222.074 311.207 222.143 311.097 222.193 311C222.295 310.803 222.379 310.547 222.451 310.262C222.598 309.684 222.727 308.867 222.84 307.873C223.065 305.877 223.226 303.096 223.291 299.925L222.758 299.915ZM221.494 310.97L221.494 310.438C221.637 310.438 221.724 310.509 221.747 310.531C221.768 310.551 221.762 310.553 221.739 310.509C221.694 310.421 221.634 310.258 221.568 310C221.44 309.493 221.316 308.732 221.205 307.752C220.985 305.8 220.824 303.052 220.76 299.898L220.228 299.909L219.696 299.919C219.76 303.092 219.922 305.875 220.147 307.872C220.259 308.866 220.389 309.684 220.536 310.262C220.608 310.547 220.692 310.803 220.794 311C220.845 311.097 220.914 311.208 221.01 311.3C221.109 311.395 221.272 311.502 221.493 311.503L221.494 310.97ZM220.228 299.909L219.859 299.525C217.583 301.71 215.527 303.54 213.991 304.765C213.22 305.38 212.595 305.831 212.145 306.099C211.916 306.235 211.759 306.308 211.665 306.338C211.617 306.353 211.615 306.347 211.644 306.348C211.676 306.348 211.787 306.359 211.888 306.46L211.512 306.837L211.136 307.214C211.292 307.37 211.484 307.409 211.621 307.412C211.754 307.415 211.882 307.386 211.986 307.353C212.197 307.286 212.438 307.164 212.69 307.014C213.202 306.708 213.872 306.222 214.655 305.598C216.226 304.345 218.308 302.491 220.597 300.293L220.228 299.909ZM211.512 306.837L211.889 306.461C211.99 306.562 212.001 306.673 212.002 306.705C212.003 306.734 211.997 306.732 212.012 306.684C212.042 306.591 212.114 306.433 212.251 306.205C212.518 305.755 212.969 305.13 213.583 304.359C214.808 302.823 216.636 300.767 218.821 298.491L218.437 298.123L218.053 297.754C215.855 300.042 214.002 302.124 212.75 303.695C212.126 304.478 211.64 305.148 211.335 305.66C211.185 305.912 211.063 306.153 210.996 306.364C210.963 306.469 210.934 306.596 210.937 306.729C210.94 306.866 210.98 307.058 211.136 307.214L211.512 306.837ZM218.437 298.123L218.448 297.59C215.295 297.526 212.548 297.366 210.597 297.146C209.617 297.035 208.857 296.912 208.35 296.783C208.092 296.718 207.929 296.658 207.842 296.613C207.797 296.589 207.8 296.584 207.82 296.605C207.842 296.628 207.913 296.715 207.913 296.858L207.38 296.858L206.848 296.858C206.848 297.079 206.956 297.242 207.05 297.341C207.143 297.438 207.253 297.507 207.35 297.558C207.547 297.66 207.803 297.743 208.088 297.815C208.665 297.962 209.483 298.092 210.477 298.204C212.473 298.429 215.255 298.591 218.426 298.655L218.437 298.123ZM207.38 296.858L207.913 296.859C207.913 297.002 207.842 297.088 207.82 297.111C207.8 297.132 207.798 297.126 207.842 297.103C207.929 297.058 208.092 296.998 208.35 296.933C208.857 296.804 209.618 296.68 210.597 296.569C212.548 296.349 215.293 296.188 218.446 296.124L218.435 295.591L218.424 295.059C215.253 295.123 212.472 295.285 210.477 295.511C209.483 295.623 208.665 295.754 208.088 295.9C207.803 295.973 207.547 296.056 207.35 296.158C207.253 296.209 207.143 296.278 207.05 296.375C206.956 296.474 206.848 296.637 206.848 296.857L207.38 296.858ZM218.435 295.591L218.819 295.222C216.635 292.948 214.807 290.893 213.583 289.357C212.969 288.587 212.519 287.962 212.251 287.512C212.115 287.283 212.042 287.126 212.012 287.032C211.997 286.985 212.003 286.982 212.002 287.011C212.001 287.043 211.99 287.154 211.89 287.255L211.512 286.879L211.135 286.504C210.979 286.66 210.94 286.851 210.937 286.988C210.934 287.122 210.963 287.249 210.997 287.353C211.063 287.564 211.185 287.804 211.336 288.057C211.64 288.569 212.127 289.239 212.75 290.021C214.002 291.591 215.854 293.672 218.051 295.96L218.435 295.591ZM211.512 286.879L211.888 287.257C211.787 287.358 211.676 287.369 211.644 287.369C211.615 287.37 211.617 287.364 211.665 287.379C211.759 287.409 211.916 287.482 212.145 287.618C212.595 287.886 213.221 288.337 213.991 288.951C215.527 290.176 217.584 292.005 219.859 294.19L220.228 293.806L220.597 293.422C218.308 291.224 216.226 289.371 214.655 288.118C213.872 287.494 213.202 287.008 212.69 286.703C212.438 286.553 212.197 286.43 211.986 286.364C211.881 286.331 211.754 286.302 211.621 286.304C211.484 286.307 211.292 286.346 211.136 286.502L211.512 286.879ZM220.228 293.806L220.76 293.817C220.824 290.663 220.985 287.916 221.205 285.963C221.316 284.984 221.44 284.223 221.568 283.715C221.634 283.457 221.694 283.295 221.739 283.207C221.762 283.163 221.768 283.165 221.747 283.185C221.724 283.207 221.637 283.278 221.494 283.278L221.494 282.746L221.493 282.213C221.272 282.213 221.109 282.321 221.01 282.416C220.914 282.508 220.845 282.619 220.794 282.716C220.692 282.912 220.608 283.169 220.536 283.453C220.389 284.031 220.259 284.849 220.147 285.844C219.922 287.84 219.76 290.623 219.696 293.795L220.228 293.806Z" fill="black" mask="url(#path-19-inside-1_207_2062)"/>
<rect x="182.137" y="225.55" width="78.1776" height="7.34912" rx="3.67456" stroke="black" stroke-width="0.639054"/>
<circle cx="185.812" cy="229.225" r="3.67456" stroke="black" stroke-width="0.639054"/>
<path d="M185.813 225.231V232.648" stroke="black" stroke-width="0.639054"/>
<circle cx="256.641" cy="229.225" r="3.67456" stroke="black" stroke-width="0.639054"/>
<path d="M256.642 225.231V232.649" stroke="black" stroke-width="0.639054"/>
<circle cx="221.226" cy="296.591" r="39.0888" stroke="black" stroke-width="0.639054"/>
<circle cx="221.227" cy="296.592" r="31.6332" stroke="black" stroke-width="0.639054"/>
<path d="M300.629 257.503H335.192V264.852H300.629C298.6 264.852 296.954 263.207 296.954 261.177C296.954 259.148 298.6 257.503 300.629 257.503Z" stroke="black" stroke-width="0.639054"/>
<path d="M296.954 229.278H304.304V261.124H296.954V229.278Z" stroke="black" stroke-width="0.639054"/>
<circle cx="300.629" cy="261.177" r="3.67456" stroke="black" stroke-width="0.639054"/>
<path d="M300.629 257.183V264.601" stroke="black" stroke-width="0.639054"/>
<mask id="path-32-inside-2_207_2062" fill="white">
<path d="M336.309 282.745C336.929 282.748 337.445 287.479 337.573 293.803C342.137 289.421 345.849 286.44 346.288 286.879C346.723 287.32 343.742 291.03 339.362 295.591C345.688 295.719 350.421 296.237 350.421 296.857C350.42 297.478 345.687 297.994 339.36 298.122C343.743 302.686 346.725 306.398 346.287 306.837C345.847 307.274 342.135 304.294 337.573 299.913C337.445 306.237 336.929 310.967 336.309 310.97C335.689 310.97 335.171 306.237 335.043 299.911C330.48 304.293 326.769 307.274 326.33 306.836C325.892 306.397 328.872 302.686 333.254 298.122C326.928 297.994 322.197 297.478 322.196 296.857C322.196 296.237 326.926 295.719 333.251 295.591C328.872 291.03 325.893 287.32 326.328 286.879C326.767 286.44 330.478 289.423 335.043 293.806C335.171 287.479 335.689 282.745 336.309 282.745Z"/>
</mask>
<path d="M336.309 282.745L336.311 282.213H336.309V282.745ZM337.573 293.803L337.041 293.814L337.065 295.029L337.942 294.187L337.573 293.803ZM346.288 286.879L346.667 286.505L346.664 286.502L346.288 286.879ZM339.362 295.591L338.978 295.222L338.136 296.099L339.351 296.123L339.362 295.591ZM350.421 296.857L350.953 296.858V296.857H350.421ZM339.36 298.122L339.349 297.59L338.134 297.614L338.976 298.491L339.36 298.122ZM346.287 306.837L346.662 307.215L346.664 307.213L346.287 306.837ZM337.573 299.913L337.942 299.529L337.065 298.687L337.041 299.902L337.573 299.913ZM336.309 310.97V311.502L336.311 311.502L336.309 310.97ZM335.043 299.911L335.575 299.9L335.551 298.685L334.674 299.527L335.043 299.911ZM326.33 306.836L325.953 307.212L325.954 307.213L326.33 306.836ZM333.254 298.122L333.638 298.491L334.48 297.614L333.264 297.59L333.254 298.122ZM322.196 296.857H321.663L321.664 296.858L322.196 296.857ZM333.251 295.591L333.262 296.123L334.477 296.099L333.635 295.222L333.251 295.591ZM326.328 286.879L325.951 286.502L325.949 286.505L326.328 286.879ZM335.043 293.806L334.674 294.19L335.551 295.032L335.575 293.817L335.043 293.806ZM336.309 282.745L336.307 283.278C336.164 283.277 336.078 283.206 336.056 283.185C336.035 283.165 336.041 283.162 336.064 283.207C336.109 283.294 336.169 283.457 336.234 283.715C336.363 284.223 336.486 284.984 336.596 285.963C336.816 287.915 336.977 290.661 337.041 293.814L337.573 293.803L338.105 293.792C338.041 290.621 337.88 287.84 337.655 285.844C337.543 284.849 337.413 284.032 337.267 283.454C337.194 283.169 337.111 282.913 337.009 282.716C336.958 282.619 336.889 282.508 336.793 282.416C336.695 282.322 336.532 282.213 336.311 282.213L336.309 282.745ZM337.573 293.803L337.942 294.187C340.217 292.002 342.273 290.174 343.809 288.95C344.58 288.335 345.205 287.885 345.655 287.617C345.884 287.481 346.041 287.408 346.135 287.379C346.183 287.364 346.185 287.369 346.156 287.369C346.124 287.368 346.013 287.357 345.911 287.256L346.288 286.879L346.664 286.502C346.508 286.346 346.317 286.307 346.18 286.304C346.046 286.301 345.919 286.33 345.814 286.363C345.603 286.43 345.363 286.552 345.111 286.702C344.598 287.007 343.928 287.493 343.145 288.117C341.575 289.369 339.493 291.221 337.204 293.419L337.573 293.803ZM346.288 286.879L345.909 287.253C345.808 287.151 345.798 287.041 345.797 287.01C345.797 286.981 345.802 286.984 345.787 287.032C345.757 287.126 345.684 287.284 345.548 287.512C345.28 287.962 344.829 288.588 344.214 289.358C342.99 290.893 341.162 292.948 338.978 295.222L339.362 295.591L339.746 295.96C341.942 293.673 343.795 291.592 345.047 290.022C345.671 289.24 346.157 288.57 346.463 288.058C346.613 287.805 346.736 287.565 346.802 287.354C346.836 287.249 346.865 287.123 346.862 286.989C346.86 286.853 346.822 286.662 346.667 286.505L346.288 286.879ZM339.362 295.591L339.351 296.123C342.505 296.187 345.252 296.348 347.204 296.569C348.183 296.68 348.944 296.803 349.451 296.932C349.709 296.998 349.872 297.057 349.959 297.103C350.004 297.126 350.001 297.131 349.981 297.11C349.959 297.087 349.888 297.001 349.888 296.857H350.421H350.953C350.953 296.637 350.845 296.473 350.751 296.375C350.659 296.278 350.548 296.208 350.451 296.158C350.254 296.056 349.998 295.972 349.713 295.9C349.136 295.753 348.318 295.623 347.323 295.511C345.327 295.285 342.545 295.123 339.373 295.058L339.362 295.591ZM350.421 296.857L349.888 296.857C349.888 296.714 349.959 296.627 349.981 296.604C350.001 296.583 350.004 296.589 349.959 296.612C349.872 296.658 349.709 296.717 349.451 296.783C348.944 296.911 348.182 297.035 347.203 297.145C345.251 297.365 342.503 297.526 339.349 297.59L339.36 298.122L339.371 298.655C342.543 298.59 345.326 298.429 347.322 298.204C348.317 298.091 349.135 297.962 349.713 297.815C349.998 297.743 350.254 297.659 350.45 297.557C350.548 297.507 350.658 297.437 350.751 297.341C350.845 297.242 350.953 297.079 350.953 296.858L350.421 296.857ZM339.36 298.122L338.976 298.491C341.161 300.766 342.99 302.822 344.215 304.358C344.829 305.129 345.28 305.754 345.548 306.204C345.684 306.433 345.757 306.59 345.787 306.684C345.802 306.732 345.796 306.734 345.797 306.705C345.798 306.674 345.809 306.563 345.91 306.461L346.287 306.837L346.664 307.213C346.82 307.056 346.859 306.865 346.862 306.728C346.865 306.595 346.835 306.468 346.802 306.363C346.736 306.152 346.613 305.912 346.463 305.659C346.158 305.147 345.672 304.477 345.047 303.694C343.795 302.123 341.942 300.042 339.744 297.753L339.36 298.122ZM346.287 306.837L345.912 306.459C346.013 306.358 346.124 306.348 346.155 306.347C346.184 306.346 346.182 306.352 346.134 306.337C346.04 306.307 345.882 306.234 345.654 306.098C345.204 305.83 344.578 305.379 343.808 304.765C342.272 303.541 340.216 301.713 337.942 299.529L337.573 299.913L337.204 300.297C339.492 302.494 341.573 304.346 343.144 305.598C343.927 306.222 344.597 306.708 345.109 307.013C345.361 307.163 345.602 307.286 345.813 307.352C345.917 307.385 346.044 307.415 346.178 307.412C346.314 307.409 346.506 307.37 346.662 307.215L346.287 306.837ZM337.573 299.913L337.041 299.902C336.977 303.055 336.816 305.801 336.596 307.752C336.486 308.731 336.363 309.492 336.234 310C336.169 310.258 336.109 310.421 336.064 310.508C336.041 310.553 336.035 310.55 336.056 310.53C336.078 310.509 336.164 310.438 336.307 310.437L336.309 310.97L336.311 311.502C336.532 311.501 336.695 311.393 336.793 311.299C336.889 311.206 336.958 311.096 337.009 310.999C337.111 310.802 337.194 310.546 337.267 310.261C337.413 309.683 337.543 308.866 337.655 307.872C337.88 305.876 338.041 303.095 338.105 299.924L337.573 299.913ZM336.309 310.97V310.437C336.453 310.437 336.539 310.508 336.562 310.53C336.583 310.55 336.578 310.553 336.554 310.508C336.509 310.421 336.449 310.258 336.384 310C336.255 309.493 336.131 308.732 336.021 307.753C335.8 305.801 335.639 303.054 335.575 299.9L335.043 299.911L334.51 299.922C334.575 303.094 334.737 305.877 334.962 307.873C335.075 308.867 335.205 309.685 335.352 310.263C335.424 310.547 335.508 310.804 335.61 311C335.66 311.097 335.73 311.208 335.826 311.3C335.925 311.395 336.089 311.502 336.309 311.502V310.97ZM335.043 299.911L334.674 299.527C332.399 301.712 330.343 303.54 328.808 304.764C328.038 305.379 327.412 305.829 326.963 306.097C326.734 306.233 326.577 306.306 326.483 306.336C326.435 306.351 326.433 306.345 326.462 306.346C326.493 306.347 326.604 306.358 326.706 306.459L326.33 306.836L325.954 307.213C326.11 307.369 326.302 307.408 326.438 307.411C326.572 307.414 326.699 307.385 326.804 307.352C327.015 307.285 327.255 307.163 327.507 307.012C328.02 306.707 328.689 306.221 329.472 305.597C331.042 304.345 333.124 302.493 335.412 300.295L335.043 299.911ZM326.33 306.836L326.707 306.46C326.808 306.561 326.819 306.672 326.82 306.704C326.82 306.733 326.815 306.731 326.83 306.683C326.859 306.589 326.932 306.432 327.068 306.203C327.336 305.754 327.786 305.128 328.401 304.358C329.625 302.822 331.453 300.766 333.638 298.491L333.254 298.122L332.87 297.753C330.672 300.042 328.82 302.123 327.568 303.694C326.944 304.476 326.458 305.146 326.153 305.659C326.003 305.911 325.881 306.151 325.814 306.362C325.781 306.467 325.752 306.594 325.755 306.728C325.758 306.865 325.797 307.056 325.953 307.212L326.33 306.836ZM333.254 298.122L333.264 297.59C330.111 297.526 327.364 297.365 325.413 297.145C324.434 297.035 323.673 296.911 323.165 296.783C322.908 296.717 322.745 296.658 322.658 296.612C322.613 296.589 322.616 296.583 322.636 296.604C322.658 296.627 322.728 296.714 322.729 296.857L322.196 296.857L321.664 296.858C321.664 297.079 321.771 297.242 321.866 297.341C321.958 297.437 322.069 297.507 322.166 297.557C322.363 297.659 322.619 297.743 322.904 297.815C323.481 297.961 324.299 298.091 325.293 298.204C327.289 298.429 330.071 298.59 333.243 298.655L333.254 298.122ZM322.196 296.857H322.729C322.729 297.001 322.658 297.087 322.636 297.11C322.616 297.131 322.613 297.126 322.658 297.103C322.745 297.057 322.907 296.998 323.165 296.932C323.672 296.803 324.433 296.68 325.412 296.569C327.363 296.348 330.109 296.187 333.262 296.123L333.251 295.591L333.24 295.058C330.069 295.123 327.287 295.285 325.292 295.511C324.298 295.623 323.48 295.753 322.903 295.9C322.618 295.972 322.362 296.056 322.166 296.158C322.068 296.209 321.958 296.278 321.866 296.375C321.771 296.474 321.664 296.637 321.664 296.857H322.196ZM333.251 295.591L333.635 295.222C331.452 292.948 329.624 290.894 328.4 289.358C327.786 288.588 327.336 287.962 327.068 287.513C326.932 287.284 326.858 287.126 326.828 287.032C326.813 286.984 326.819 286.981 326.818 287.01C326.818 287.041 326.807 287.151 326.707 287.253L326.328 286.879L325.949 286.505C325.794 286.662 325.756 286.853 325.753 286.989C325.751 287.122 325.78 287.249 325.813 287.354C325.88 287.565 326.002 287.805 326.153 288.057C326.458 288.57 326.944 289.24 327.567 290.022C328.819 291.592 330.671 293.673 332.867 295.96L333.251 295.591ZM326.328 286.879L326.704 287.256C326.603 287.357 326.492 287.368 326.46 287.369C326.431 287.369 326.433 287.364 326.481 287.379C326.574 287.408 326.732 287.481 326.96 287.617C327.41 287.885 328.036 288.336 328.806 288.951C330.342 290.175 332.398 292.005 334.674 294.19L335.043 293.806L335.412 293.422C333.123 291.224 331.041 289.37 329.47 288.118C328.688 287.494 328.017 287.007 327.505 286.702C327.253 286.552 327.012 286.43 326.801 286.363C326.697 286.33 326.57 286.301 326.436 286.304C326.299 286.307 326.107 286.346 325.951 286.502L326.328 286.879ZM335.043 293.806L335.575 293.817C335.639 290.662 335.8 287.915 336.021 285.963C336.131 284.983 336.255 284.222 336.384 283.715C336.449 283.457 336.509 283.294 336.554 283.207C336.578 283.162 336.583 283.165 336.562 283.185C336.539 283.207 336.453 283.278 336.309 283.278V282.745V282.213C336.089 282.213 335.925 282.32 335.826 282.415C335.73 282.507 335.66 282.618 335.61 282.715C335.507 282.911 335.424 283.168 335.352 283.453C335.205 284.03 335.075 284.848 334.962 285.843C334.737 287.839 334.575 290.622 334.51 293.795L335.043 293.806Z" fill="black" mask="url(#path-32-inside-2_207_2062)"/>
<rect x="296.954" y="225.55" width="78.1776" height="7.34912" rx="3.67456" stroke="black" stroke-width="0.639054"/>
<circle cx="300.629" cy="229.225" r="3.67456" stroke="black" stroke-width="0.639054"/>
<path d="M300.629 225.231V232.648" stroke="black" stroke-width="0.639054"/>
<circle cx="371.457" cy="229.225" r="3.67456" stroke="black" stroke-width="0.639054"/>
<path d="M371.457 225.231V232.649" stroke="black" stroke-width="0.639054"/>
<circle cx="336.043" cy="296.592" r="39.0888" stroke="black" stroke-width="0.639054"/>
<circle cx="336.043" cy="296.592" r="31.6332" stroke="black" stroke-width="0.639054"/>
</g>
<path d="M471.779 253.923C472.734 253.925 473.53 261.217 473.728 270.963C480.76 264.211 486.48 259.619 487.156 260.294C487.832 260.971 483.238 266.689 476.486 273.722C486.234 273.919 493.527 274.717 493.529 275.673C493.529 276.629 486.234 277.425 476.485 277.623C483.239 284.657 487.833 290.378 487.157 291.054C486.479 291.727 480.76 287.134 473.728 280.382C473.53 290.129 472.734 297.421 471.779 297.424C470.823 297.423 470.024 290.13 469.826 280.381C462.794 287.134 457.074 291.728 456.398 291.053C455.723 290.376 460.315 284.656 467.068 277.623C457.32 277.425 450.028 276.629 450.028 275.673C450.029 274.717 457.321 273.92 467.068 273.722C460.316 266.69 455.725 260.971 456.399 260.294C457.076 259.62 462.795 264.213 469.826 270.965C470.024 261.217 470.823 253.924 471.779 253.923Z" fill="black"/>
<path d="M526.769 164.46C530.168 164.46 532.925 167.216 532.925 170.615C532.925 174.015 530.169 176.771 526.769 176.771H423.763V222.27L431.539 230.135C442.303 220.433 456.556 214.527 472.188 214.527C505.732 214.527 532.924 241.72 532.924 275.264C532.924 308.807 505.732 336 472.188 336C438.644 336 411.452 308.807 411.452 275.264C411.452 258.131 418.546 242.656 429.956 231.614C427.508 233.961 425.255 236.51 423.226 239.236L413.064 228.958L413.073 228.948C412.153 227.947 411.562 226.639 411.467 225.196H411.452V170.205H411.467C411.679 166.997 414.346 164.46 417.608 164.46H526.769ZM472.188 226.839C445.444 226.839 423.763 248.52 423.763 275.264C423.763 302.008 445.444 323.688 472.188 323.688C498.932 323.688 520.613 302.008 520.613 275.264C520.613 248.519 498.932 226.839 472.188 226.839Z" fill="black"/>
</svg>
