<svg width="250" height="36" viewBox="0 0 250 36" fill="none" xmlns="http://www.w3.org/2000/svg">
<path d="M12.2246 18.7487C12.4185 18.7488 12.5767 20.2299 12.6162 22.2087C14.0434 20.8376 15.2042 19.9031 15.3418 20.0397C15.4771 20.1784 14.5413 21.3372 13.1709 22.7634C15.1495 22.8029 16.6313 22.9621 16.6328 23.1559C16.6328 23.3499 15.15 23.5081 13.1699 23.5475C14.5411 24.9743 15.4771 26.1344 15.3418 26.2731C15.2039 26.4094 14.0433 25.4743 12.6162 24.1032C12.5767 26.0823 12.4185 27.5641 12.2246 27.5641C12.0307 27.5637 11.8715 26.0816 11.832 24.1022C10.4057 25.4728 9.24711 26.4084 9.1084 26.2731C8.97175 26.1356 9.90608 24.9749 11.2773 23.5475C9.29856 23.508 7.81738 23.3499 7.81738 23.1559C7.81894 22.9622 9.2991 22.803 11.2764 22.7634C9.90607 21.3369 8.97221 20.1776 9.1084 20.0397C9.24711 19.9045 10.4059 20.8393 11.832 22.2096C11.8716 20.2307 12.0307 18.7492 12.2246 18.7487Z" fill="#333333"/>
<path d="M23.3682 0.619629C24.057 0.619629 24.615 1.17793 24.6152 1.8667C24.6152 2.55563 24.0571 3.11475 23.3682 3.11475H2.49512V12.3335L4.07031 13.9282C6.25157 11.9621 9.13986 10.7652 12.3076 10.7651C19.1049 10.7651 24.615 16.2755 24.6152 23.0728C24.6152 29.8702 19.105 35.3804 12.3076 35.3804C5.51029 35.3803 0 29.8701 0 23.0728C0.000119947 19.5179 1.50872 16.3165 3.91895 14.0698C3.35722 14.5885 2.84307 15.1585 2.38574 15.7729L0.326172 13.6899L0.328125 13.688C0.14174 13.485 0.0231338 13.2197 0.00390625 12.9272H0V1.78369H0.00488281C0.0478304 1.13381 0.586355 0.619807 1.24707 0.619629H23.3682ZM12.3076 13.8286C7.20213 13.8287 3.06371 17.9673 3.06348 23.0728C3.06348 28.1784 7.20199 32.3178 12.3076 32.3179C17.4133 32.3179 21.5527 28.1785 21.5527 23.0728C21.5525 17.9672 17.4132 13.8286 12.3076 13.8286Z" fill="#333333"/>
<path d="M50.1855 8.20312H54.2598V22.0117C54.2598 25.8672 51.5527 28.2734 47.5605 28.2734C43.9785 28.2734 41.1621 26.3867 41.1895 22.4766H45.291C45.3184 24.0352 46.2754 24.9648 47.752 24.9648C49.3105 24.9648 50.1855 23.9531 50.1855 22.0117V8.20312ZM60.9043 28H56.4746L63.3379 8.20312H68.6152L75.4512 28H71.0488L69.5723 23.4336H62.4082L60.9043 28ZM63.4473 20.2344H68.5332L66.0449 12.6602H65.9082L63.4473 20.2344ZM77.6934 28V8.20312H90.9824V11.5938H81.7949V16.4062H90.2988V19.7969H81.7949V24.6094H91.0098V28H77.6934ZM94.1816 28V8.20312H98.2832V16.4062H106.869V8.20312H110.998V28H106.869V19.7969H98.2832V28H94.1816ZM113.131 8.20312H117.752L122.318 16.7344H122.51L127.049 8.20312H131.67L124.451 20.9453V28H120.35V20.9453L113.131 8.20312ZM150.729 18.1016C150.729 24.5547 146.709 28.2734 141.486 28.2734C136.209 28.2734 132.217 24.5273 132.217 18.1016C132.217 11.6484 136.209 7.92969 141.486 7.92969C146.709 7.92969 150.729 11.6484 150.729 18.1016ZM146.545 18.1016C146.545 13.8633 144.549 11.5664 141.486 11.5664C138.424 11.5664 136.4 13.8633 136.4 18.1016C136.4 22.3398 138.424 24.6367 141.486 24.6367C144.549 24.6367 146.545 22.3398 146.545 18.1016ZM170.197 8.20312V28H166.643L157.947 15.4219H157.783V28H153.682V8.20312H157.291L165.932 20.7812H166.123V8.20312H170.197ZM186.686 14.5742C186.139 12.7148 184.635 11.5664 182.475 11.5664C179.412 11.5664 177.334 13.918 177.334 18.0742C177.334 22.2578 179.357 24.6367 182.502 24.6367C185.332 24.6367 187.014 23.0371 187.068 20.5352H182.775V17.4453H191.033V19.9062C191.033 25.1016 187.479 28.2734 182.475 28.2734C176.924 28.2734 173.15 24.3906 173.15 18.1289C173.15 11.7031 177.17 7.92969 182.393 7.92969C186.85 7.92969 190.295 10.6641 190.842 14.5742H186.686ZM200.494 28V8.20312H204.596V16.9805H204.869L212.061 8.20312H217.01L209.627 17.0625L217.092 28H212.17L206.674 19.8242L204.596 22.3398V28H200.494ZM223.162 8.20312V28H219.061V8.20312H223.162ZM226.498 8.20312H231.584L237.08 21.6289H237.299L242.795 8.20312H247.881V28H243.889V15.0391H243.725L238.557 27.918H235.822L230.654 14.9844H230.49V28H226.498V8.20312Z" fill="#333333"/>
</svg>
