<svg width="300" height="423" viewBox="0 0 300 423" fill="none" xmlns="http://www.w3.org/2000/svg">
<path d="M148.987 220.606C151.348 220.608 153.319 238.583 153.808 262.614C171.173 245.966 185.299 234.648 186.968 236.314C188.634 237.983 177.297 252.085 160.624 269.423C184.695 269.911 202.702 271.88 202.703 274.237C202.701 276.594 184.694 278.562 160.622 279.05C177.299 296.391 188.639 310.498 186.971 312.165C185.301 313.831 171.175 302.51 153.808 285.86C153.319 309.894 151.348 327.873 148.987 327.874C146.627 327.873 144.654 309.892 144.165 285.857C126.798 302.508 112.67 313.83 111.001 312.163C109.334 310.495 120.671 296.389 137.346 279.05C113.277 278.562 95.2722 276.594 95.2705 274.237C95.2714 271.881 113.276 269.911 137.346 269.423C120.673 252.085 109.336 237.983 111.004 236.315C112.673 234.649 126.799 245.969 144.165 262.618C144.654 238.585 146.627 220.608 148.987 220.606Z" fill="#359D69"/>
<path d="M284.82 0C293.204 0 300 6.79636 300 15.1797C300 23.5629 293.203 30.3584 284.82 30.3584H30.4053V142.552L49.6113 161.948C76.1953 138.025 111.394 123.461 150 123.461L151.938 123.474C233.888 124.51 300 191.161 300 273.23L299.987 275.166C298.949 356.989 232.195 423 150 423L148.062 422.988C66.1124 421.952 0.000200823 355.3 0 273.23C2.52804e-05 231.034 17.4784 192.913 45.5996 165.691C39.5917 171.452 34.0621 177.706 29.0791 184.391L3.98145 159.045L4.00293 159.021C1.73147 156.551 0.268601 153.327 0.0341797 149.769H0V14.167H0.0351562C0.556146 6.25572 7.13658 0 15.1797 0H284.82ZM150 154.88C84.464 154.88 31.419 207.913 31.4189 273.23C31.4191 338.548 84.4641 391.581 150 391.581C215.536 391.581 268.581 338.548 268.581 273.23C268.581 207.913 215.536 154.88 150 154.88Z" fill="#359D69"/>
</svg>
