<svg width="150" height="150" viewBox="0 0 150 150" fill="none" xmlns="http://www.w3.org/2000/svg">
<rect width="150" height="150" rx="75" fill="#359D69" fill-opacity="0.66"/>
<path d="M54.9201 67H52.4312L45.9867 51.4444H48.7201L53.7867 63.7111L58.8756 51.4444H61.4089L54.9201 67ZM65.2628 51.4444V67H62.7294V51.4444H65.2628ZM79.4811 67H68.5255V51.4444H79.1922V53.6H71.0366V58.0667H78.2811V60.1556H71.0366V64.8444H79.4811V67ZM98.4317 67H95.7428L91.965 55.1333L88.1428 67H85.4539L80.5428 51.4444H83.165L86.9428 63.5556L90.8539 51.4444H93.2095L97.0539 63.6222L100.921 51.4444H103.343L98.4317 67ZM34.2103 83.4444C36.1363 83.4444 37.6548 83.9333 38.7659 84.9111C39.8918 85.8889 40.4548 87.2296 40.4548 88.9333C40.4548 90.0593 40.2029 91.037 39.6992 91.8667C39.1955 92.6815 38.4696 93.3111 37.5214 93.7556C36.5881 94.1852 35.4844 94.4 34.2103 94.4H30.7659V99H28.2326V83.4444H34.2103ZM34.0992 92.2222C35.3288 92.2222 36.2696 91.9333 36.9214 91.3556C37.5733 90.7778 37.8992 89.9704 37.8992 88.9333C37.8992 87.8815 37.5733 87.0667 36.9214 86.4889C36.2696 85.9111 35.3288 85.6222 34.0992 85.6222H30.7659V92.2222H34.0992ZM49.3079 94.3333C49.0412 94.363 48.8264 94.3778 48.6635 94.3778H45.219V99H42.6857V83.4444H48.6635C50.5894 83.4444 52.1079 83.9333 53.219 84.9111C54.3449 85.8889 54.9079 87.2296 54.9079 88.9333C54.9079 90.1185 54.6264 91.1333 54.0635 91.9778C53.5153 92.8074 52.7227 93.4222 51.6857 93.8222L55.1523 99H52.4412L49.3079 94.3333ZM48.5523 92.2222C49.782 92.2222 50.7227 91.9333 51.3746 91.3556C52.0264 90.7778 52.3523 89.9704 52.3523 88.9333C52.3523 87.8815 52.0264 87.0667 51.3746 86.4889C50.7227 85.9111 49.782 85.6222 48.5523 85.6222H45.219V92.2222H48.5523ZM64.2391 99.2C62.728 99.2 61.3651 98.8593 60.1503 98.1778C58.9503 97.4815 58.0095 96.5259 57.328 95.3111C56.6466 94.0963 56.3058 92.7333 56.3058 91.2222C56.3058 89.7111 56.6466 88.3481 57.328 87.1333C58.0095 85.9185 58.9503 84.9704 60.1503 84.2889C61.3651 83.5926 62.728 83.2444 64.2391 83.2444C65.7354 83.2444 67.0836 83.5926 68.2836 84.2889C69.4984 84.9704 70.4466 85.9185 71.128 87.1333C71.8243 88.3481 72.1725 89.7111 72.1725 91.2222C72.1725 92.7333 71.8243 94.0963 71.128 95.3111C70.4466 96.5259 69.4984 97.4815 68.2836 98.1778C67.0836 98.8593 65.7354 99.2 64.2391 99.2ZM64.2391 96.9333C65.2466 96.9333 66.1577 96.6889 66.9725 96.2C67.8021 95.7111 68.4466 95.037 68.9058 94.1778C69.3799 93.3037 69.6169 92.3185 69.6169 91.2222C69.6169 90.1259 69.3799 89.1481 68.9058 88.2889C68.4466 87.4148 67.8021 86.7333 66.9725 86.2444C66.1577 85.7556 65.2466 85.5111 64.2391 85.5111C63.2169 85.5111 62.291 85.7556 61.4614 86.2444C60.6466 86.7333 60.0021 87.4148 59.528 88.2889C59.0688 89.1481 58.8391 90.1259 58.8391 91.2222C58.8391 92.3185 59.0688 93.3037 59.528 94.1778C60.0021 95.037 60.6466 95.7111 61.4614 96.2C62.291 96.6889 63.2169 96.9333 64.2391 96.9333ZM76.7041 99.2C75.7856 99.2 74.9337 99.0074 74.1485 98.6222C73.3782 98.2222 72.7485 97.6667 72.2596 96.9556L73.6596 95.2C74.4745 96.4 75.4596 97 76.6152 97C78.23 97 79.0374 96 79.0374 94V85.6H73.7263V83.4444H81.5263V93.8889C81.5263 97.4296 79.9189 99.2 76.7041 99.2ZM95.6334 99H84.6779V83.4444H95.3445V85.6H87.189V90.0667H94.4334V92.1556H87.189V96.8444H95.6334V99ZM104.895 99.2C103.414 99.2 102.073 98.8593 100.873 98.1778C99.6729 97.4815 98.7322 96.5259 98.0507 95.3111C97.3692 94.0963 97.0285 92.7333 97.0285 91.2222C97.0285 89.6963 97.3692 88.3333 98.0507 87.1333C98.7322 85.9185 99.6729 84.9704 100.873 84.2889C102.073 83.5926 103.421 83.2444 104.917 83.2444C106.103 83.2444 107.191 83.4593 108.184 83.8889C109.177 84.3185 110.006 84.9407 110.673 85.7556L109.073 87.3556C107.977 86.1259 106.628 85.5111 105.028 85.5111C103.991 85.5111 103.058 85.7556 102.228 86.2444C101.399 86.7333 100.747 87.4148 100.273 88.2889C99.7988 89.163 99.5618 90.1407 99.5618 91.2222C99.5618 92.3037 99.7988 93.2815 100.273 94.1556C100.747 95.0296 101.399 95.7111 102.228 96.2C103.058 96.6889 103.991 96.9333 105.028 96.9333C106.628 96.9333 107.977 96.3111 109.073 95.0667L110.673 96.6667C110.006 97.4963 109.177 98.1259 108.184 98.5556C107.191 98.9852 106.095 99.2 104.895 99.2ZM111.123 85.6222V83.4444H123.545V85.6222H118.589V99H116.078V85.6222H111.123Z" fill="white"/>
</svg>
