<svg width="360" height="509" viewBox="0 0 360 509" fill="none" xmlns="http://www.w3.org/2000/svg">
<path d="M178.785 265.136C181.617 265.138 183.982 286.742 184.569 315.622C205.406 295.615 222.356 282.012 224.361 284.013C226.364 286.016 212.758 302.967 192.749 323.806C221.635 324.392 243.244 326.759 243.244 329.592C243.241 332.424 221.632 334.789 192.746 335.375C212.758 356.217 226.366 373.171 224.364 375.175C222.359 377.176 205.408 363.57 184.569 343.561C183.982 372.445 181.617 394.052 178.785 394.055C175.952 394.053 173.585 372.443 172.999 343.556C152.157 363.567 135.205 377.175 133.202 375.172C131.2 373.167 144.806 356.215 164.816 335.375C135.933 334.789 114.327 332.424 114.325 329.592C114.325 326.759 135.93 324.393 164.813 323.806C144.805 302.968 131.203 286.018 133.206 284.016C135.209 282.014 152.16 295.619 172.999 315.628C173.585 286.744 175.952 265.137 178.785 265.136Z" fill="#359D69"/>
<path d="M341.757 0C351.832 2.53564e-05 360 8.16784 360 18.2432C360 28.3186 351.832 36.4863 341.757 36.4863H36.4863V171.326L59.5332 194.637C91.434 165.884 133.672 148.381 180 148.381L182.326 148.396C280.665 149.641 360 229.746 360 328.381L359.985 330.707C358.74 429.046 278.634 508.381 180 508.381L177.674 508.366C80.1091 507.13 1.25046 428.272 0.0146484 330.707L0 328.381C0 277.645 20.9926 231.813 54.7637 199.094C47.5372 206.029 40.8872 213.559 34.8955 221.609L4.77734 191.147L4.80371 191.118C2.07808 188.149 0.322432 184.276 0.0410156 179.999H0V17.0264H0.0419922C0.668305 7.51851 8.57685 0.000146486 18.2432 0H341.757ZM180 186.083C101.411 186.083 37.7021 249.792 37.7021 328.381C37.7023 406.969 101.411 470.679 180 470.679C258.589 470.679 322.298 406.969 322.298 328.381C322.298 249.792 258.589 186.083 180 186.083Z" fill="#359D69"/>
</svg>
