<svg width="300" height="42" viewBox="0 0 300 42" fill="none" xmlns="http://www.w3.org/2000/svg">
<path d="M14.6699 21.7549C14.9025 21.7564 15.0922 23.5335 15.1396 25.9072C16.8513 24.2628 18.2428 23.1413 18.4092 23.3037C18.5737 23.4683 17.4505 24.8594 15.8047 26.5723C18.1803 26.6198 19.9589 26.8112 19.959 27.044C19.9588 27.2768 18.1798 27.4664 15.8037 27.5137C17.4503 29.2273 18.5738 30.6196 18.4092 30.7842C18.2433 30.9472 16.8517 29.8255 15.1396 28.1807C15.0922 30.5544 14.9025 32.3315 14.6699 32.333C14.4372 32.333 14.2458 30.5549 14.1982 28.1797C12.4863 29.8247 11.0954 30.9474 10.9297 30.7842C10.7659 30.619 11.887 29.2262 13.5322 27.5137C11.1581 27.4662 9.38104 27.2766 9.38086 27.044C9.38093 26.8113 11.1575 26.6199 13.5312 26.5723C11.8869 24.8605 10.766 23.4689 10.9297 23.3037C11.0959 23.1411 12.4866 24.2636 14.1982 25.9082C14.2458 23.533 14.4372 21.7549 14.6699 21.7549Z" fill="#333333"/>
<path d="M28.042 0C28.8686 8.02945e-05 29.5391 0.670407 29.5391 1.49707C29.539 2.32365 28.8686 2.99406 28.042 2.99414H2.99414V14.0576L4.88477 15.9697C7.50231 13.6106 10.9684 12.1748 14.7695 12.1748L15.1504 12.1797C23.1312 12.3818 29.539 18.9149 29.5391 26.9443L29.5342 27.3252C29.3321 35.306 22.799 41.7138 14.7695 41.7139L14.3877 41.709C6.53381 41.5098 0.203769 35.1792 0.00488281 27.3252L0 26.9443C2.36359e-05 22.7882 1.71737 19.0335 4.48047 16.3496C3.89274 16.915 3.35118 17.5281 2.86328 18.1836L0.391602 15.6836L0.394531 15.6816C0.170954 15.4381 0.0280393 15.1203 0.00488281 14.7695H0V1.39746H0.00488281C0.056112 0.617157 0.703806 0 1.49707 0H28.042ZM14.7695 15.8506C8.6427 15.8506 3.67583 20.8175 3.67578 26.9443C3.67587 33.0711 8.64273 38.0381 14.7695 38.0381C20.8963 38.038 25.8632 33.0711 25.8633 26.9443C25.8632 20.8176 20.8963 15.8507 14.7695 15.8506Z" fill="#333333"/>
<path d="M60.4766 9.73193H65.1328V25.5132C65.1328 29.9194 62.0391 32.6694 57.4766 32.6694C53.3828 32.6694 50.1641 30.5132 50.1953 26.0444H54.8828C54.9141 27.8257 56.0078 28.8882 57.6953 28.8882C59.4766 28.8882 60.4766 27.7319 60.4766 25.5132V9.73193ZM72.7266 32.3569H67.6641L75.5078 9.73193H81.5391L89.3516 32.3569H84.3203L82.6328 27.1382H74.4453L72.7266 32.3569ZM75.6328 23.4819H81.4453L78.6016 14.8257H78.4453L75.6328 23.4819ZM91.9141 32.3569V9.73193H107.102V13.6069H96.6016V19.1069H106.32V22.9819H96.6016V28.4819H107.133V32.3569H91.9141ZM110.758 32.3569V9.73193H115.445V19.1069H125.258V9.73193H129.977V32.3569H125.258V22.9819H115.445V32.3569H110.758ZM132.414 9.73193H137.695L142.914 19.4819H143.133L148.32 9.73193H153.602L145.352 24.2944V32.3569H140.664V24.2944L132.414 9.73193ZM175.383 21.0444C175.383 28.4194 170.789 32.6694 164.82 32.6694C158.789 32.6694 154.227 28.3882 154.227 21.0444C154.227 13.6694 158.789 9.41943 164.82 9.41943C170.789 9.41943 175.383 13.6694 175.383 21.0444ZM170.602 21.0444C170.602 16.2007 168.32 13.5757 164.82 13.5757C161.32 13.5757 159.008 16.2007 159.008 21.0444C159.008 25.8882 161.32 28.5132 164.82 28.5132C168.32 28.5132 170.602 25.8882 170.602 21.0444ZM197.633 9.73193V32.3569H193.57L183.633 17.9819H183.445V32.3569H178.758V9.73193H182.883L192.758 24.1069H192.977V9.73193H197.633ZM216.477 17.0132C215.852 14.8882 214.133 13.5757 211.664 13.5757C208.164 13.5757 205.789 16.2632 205.789 21.0132C205.789 25.7944 208.102 28.5132 211.695 28.5132C214.93 28.5132 216.852 26.6851 216.914 23.8257H212.008V20.2944H221.445V23.1069C221.445 29.0444 217.383 32.6694 211.664 32.6694C205.32 32.6694 201.008 28.2319 201.008 21.0757C201.008 13.7319 205.602 9.41943 211.57 9.41943C216.664 9.41943 220.602 12.5444 221.227 17.0132H216.477ZM232.258 32.3569V9.73193H236.945V19.7632H237.258L245.477 9.73193H251.133L242.695 19.8569L251.227 32.3569H245.602L239.32 23.0132L236.945 25.8882V32.3569H232.258ZM258.164 9.73193V32.3569H253.477V9.73193H258.164ZM261.977 9.73193H267.789L274.07 25.0757H274.32L280.602 9.73193H286.414V32.3569H281.852V17.5444H281.664L275.758 32.2632H272.633L266.727 17.4819H266.539V32.3569H261.977V9.73193Z" fill="#333333"/>
</svg>
