<svg width="572" height="380" viewBox="0 0 572 380" fill="none" xmlns="http://www.w3.org/2000/svg">
<rect width="572" height="380" rx="20" fill="black" fill-opacity="0.33"/>
<path d="M148.473 153.222V171.951H159.393V175H144.927V153.222H148.473ZM165.18 153.222V175H161.634V153.222H165.18ZM176.313 175.28C174.716 175.28 173.181 175.041 171.708 174.564C170.256 174.067 169.095 173.413 168.224 172.604L169.499 169.836C170.308 170.561 171.325 171.153 172.548 171.609C173.793 172.065 175.047 172.293 176.313 172.293C177.91 172.293 179.102 172.013 179.89 171.453C180.679 170.873 181.073 170.116 181.073 169.182C181.073 168.498 180.845 167.938 180.388 167.502C179.953 167.067 179.393 166.724 178.708 166.476C178.045 166.227 177.132 165.957 175.97 165.667C174.436 165.293 173.181 164.91 172.206 164.516C171.231 164.121 170.402 163.51 169.717 162.68C169.033 161.83 168.69 160.71 168.69 159.32C168.69 158.138 168.991 157.07 169.593 156.116C170.194 155.141 171.107 154.373 172.33 153.813C173.575 153.233 175.089 152.942 176.873 152.942C178.138 152.942 179.372 153.108 180.575 153.44C181.778 153.772 182.815 154.249 183.686 154.871L182.566 157.702C181.653 157.121 180.71 156.686 179.735 156.396C178.76 156.084 177.796 155.929 176.842 155.929C175.286 155.929 174.125 156.23 173.357 156.831C172.59 157.433 172.206 158.21 172.206 159.164C172.206 159.849 172.424 160.409 172.859 160.844C173.316 161.28 173.876 161.622 174.539 161.871C175.224 162.12 176.157 162.39 177.339 162.68C178.874 163.053 180.119 163.437 181.073 163.831C182.047 164.225 182.877 164.837 183.562 165.667C184.246 166.476 184.588 167.564 184.588 168.933C184.588 170.116 184.277 171.184 183.655 172.138C183.053 173.092 182.13 173.859 180.886 174.44C179.642 175 178.117 175.28 176.313 175.28ZM190.379 169.773L188.232 175H184.592L193.957 153.222H197.441L206.775 175H203.072L200.926 169.773H190.379ZM195.668 156.924L191.53 166.911H199.775L195.668 156.924ZM226.114 164.08V152.289H229.257V156.8H232.243V152.164H235.417V164.329H232.243V160.098H229.257V164.08H226.114ZM224.217 158.231C224.217 160.015 223.74 161.456 222.786 162.556C221.831 163.655 220.525 164.204 218.866 164.204C217.206 164.204 215.9 163.655 214.946 162.556C214.012 161.456 213.546 160.015 213.546 158.231C213.546 156.447 214.012 155.006 214.946 153.907C215.9 152.807 217.206 152.258 218.866 152.258C220.525 152.258 221.831 152.807 222.786 153.907C223.74 155.006 224.217 156.447 224.217 158.231ZM216.626 158.231C216.626 159.206 216.823 159.984 217.217 160.564C217.611 161.124 218.16 161.404 218.866 161.404C219.591 161.404 220.141 161.124 220.514 160.564C220.908 159.984 221.106 159.206 221.106 158.231C221.106 157.256 220.908 156.489 220.514 155.929C220.141 155.369 219.591 155.089 218.866 155.089C218.16 155.089 217.611 155.379 217.217 155.96C216.823 156.52 216.626 157.277 216.626 158.231ZM235.852 175.871H215.443V169.587H232.119V168.031H215.381V165.449H235.417V171.702H218.741V173.289H235.852V175.871ZM259.587 165.511H256.227V160.098H252.244V164.547H238.742V152.538H242.009V155.524H248.947V152.538H252.244V156.8H256.227V152.164H259.587V165.511ZM248.947 158.324H242.009V161.653H248.947V158.324ZM259.587 166.631V175.871H239.862V166.631H259.587ZM256.227 172.947V169.556H243.222V172.947H256.227ZM290.376 176.058H287.016V164.827H281.789C281.291 166.901 280.441 168.684 279.238 170.178C278.056 171.65 276.635 172.77 274.976 173.538C273.316 174.305 271.522 174.699 269.594 174.72V171.391C271.792 171.391 273.659 170.81 275.194 169.649C276.728 168.487 277.807 166.807 278.429 164.609H269.594V161.373H278.958C278.979 161.083 278.989 160.627 278.989 160.004V156.147H269.594V152.911H282.349V159.787C282.349 160.201 282.328 160.782 282.287 161.529H287.016V152.164H290.376V176.058ZM315.012 176.058H311.621V164.889H307.266V174.751H294.417V152.818H297.715V160.564H303.968V152.818H307.266V161.56H311.621V152.164H315.012V176.058ZM303.968 163.8H297.715V171.516H303.968V163.8ZM342.286 165.107V152.164H345.646V165.107H342.286ZM325.05 163.427V152.631H338.802V163.427H325.05ZM328.41 155.524V160.502H335.473V155.524H328.41ZM335.473 172.853C334.353 173.849 332.922 174.596 331.179 175.093C329.458 175.612 327.622 175.871 325.673 175.871V172.947C327.581 172.947 329.323 172.636 330.899 172.013C332.476 171.391 333.533 170.541 334.073 169.462H325.89V166.6H334.135V164.516H337.557V166.6H345.833V169.462H337.713C337.65 169.773 337.536 170.126 337.37 170.52L346.486 173.32L345.553 176.182L335.473 172.853ZM356.306 167.502V152.818H359.635V156.956H372.982V152.818H376.311V167.502H356.306ZM372.982 160.067H359.635V164.329H372.982V160.067ZM377.711 175.031H354.906V171.733H377.711V175.031ZM392.392 170.053V152.289H395.534V158.262H398.521V152.164H401.694V170.458H398.521V161.436H395.534V170.053H392.392ZM391.054 166.289C389.685 166.87 387.663 167.16 384.987 167.16H380.134V158.449H386.854V155.556H380.134V152.631H389.965V161.218H383.245V164.236H385.205C387.777 164.236 389.727 163.956 391.054 163.396V166.289ZM402.161 175.871H381.441V168.809H384.863V172.698H402.161V175.871ZM422.348 165.356V152.164H425.708V165.356H422.348ZM408.504 155.587V161.187H414.508C415.836 161.187 417.07 161.104 418.211 160.938C419.351 160.751 420.254 160.502 420.917 160.191V163.147C420.254 163.458 419.351 163.707 418.211 163.893C417.091 164.059 415.836 164.142 414.446 164.142H405.113V152.631H419.424V155.587H408.504ZM415.94 165.947C418.988 165.947 421.425 166.361 423.251 167.191C425.076 168 425.988 169.286 425.988 171.049C425.988 172.833 425.076 174.139 423.251 174.969C421.425 175.778 418.988 176.182 415.94 176.182C412.891 176.182 410.443 175.778 408.597 174.969C406.772 174.139 405.86 172.833 405.86 171.049C405.86 169.286 406.772 168 408.597 167.191C410.443 166.361 412.891 165.947 415.94 165.947ZM415.94 168.84C414.031 168.84 412.476 169.027 411.273 169.4C410.091 169.753 409.5 170.302 409.5 171.049C409.5 171.796 410.091 172.356 411.273 172.729C412.476 173.102 414.031 173.289 415.94 173.289C417.848 173.289 419.393 173.102 420.575 172.729C421.778 172.356 422.38 171.796 422.38 171.049C422.38 170.302 421.778 169.753 420.575 169.4C419.393 169.027 417.848 168.84 415.94 168.84Z" fill="white"/>
<path d="M249.185 225H235.825V223.267L243.425 215.853C244.349 214.947 244.972 214.173 245.292 213.533C245.612 212.876 245.772 212.209 245.772 211.533C245.772 210.538 245.425 209.756 244.732 209.187C244.056 208.618 243.078 208.333 241.798 208.333C239.736 208.333 238.154 209.018 237.052 210.387L235.185 209.08C235.914 208.138 236.856 207.409 238.012 206.893C239.167 206.378 240.5 206.12 242.012 206.12C243.949 206.12 245.496 206.582 246.652 207.507C247.807 208.431 248.385 209.693 248.385 211.293C248.385 212.271 248.172 213.204 247.745 214.093C247.318 214.964 246.509 215.978 245.318 217.133L239.532 222.813H249.185V225ZM258.473 225.213C256.997 225.213 255.682 224.831 254.526 224.067C253.388 223.284 252.49 222.173 251.833 220.733C251.193 219.293 250.873 217.604 250.873 215.667C250.873 213.711 251.193 212.013 251.833 210.573C252.49 209.133 253.388 208.031 254.526 207.267C255.682 206.502 256.997 206.12 258.473 206.12C259.966 206.12 261.282 206.502 262.419 207.267C263.575 208.031 264.473 209.133 265.113 210.573C265.753 212.013 266.073 213.711 266.073 215.667C266.073 217.622 265.753 219.32 265.113 220.76C264.473 222.2 263.575 223.302 262.419 224.067C261.264 224.831 259.948 225.213 258.473 225.213ZM258.473 222.973C259.984 222.973 261.193 222.342 262.099 221.08C263.006 219.818 263.459 218.013 263.459 215.667C263.459 213.32 263.006 211.516 262.099 210.253C261.193 208.991 259.984 208.36 258.473 208.36C256.962 208.36 255.753 208.991 254.846 210.253C253.957 211.516 253.513 213.32 253.513 215.667C253.513 218.013 253.957 219.818 254.846 221.08C255.753 222.342 256.962 222.973 258.473 222.973ZM281.2 225H267.84V223.267L275.44 215.853C276.365 214.947 276.987 214.173 277.307 213.533C277.627 212.876 277.787 212.209 277.787 211.533C277.787 210.538 277.44 209.756 276.747 209.187C276.072 208.618 275.094 208.333 273.814 208.333C271.752 208.333 270.169 209.018 269.067 210.387L267.2 209.08C267.929 208.138 268.872 207.409 270.027 206.893C271.183 206.378 272.516 206.12 274.027 206.12C275.965 206.12 277.512 206.582 278.667 207.507C279.823 208.431 280.4 209.693 280.4 211.293C280.4 212.271 280.187 213.204 279.76 214.093C279.334 214.964 278.525 215.978 277.334 217.133L271.547 222.813H281.2V225ZM289.475 213.827C292.159 213.827 294.115 214.324 295.342 215.32C296.586 216.298 297.208 217.667 297.208 219.427C297.208 220.511 296.942 221.489 296.408 222.36C295.893 223.231 295.102 223.924 294.035 224.44C292.986 224.956 291.697 225.213 290.168 225.213C288.853 225.213 287.582 225.009 286.355 224.6C285.128 224.173 284.133 223.613 283.368 222.92L284.488 220.947C285.111 221.551 285.919 222.04 286.915 222.413C287.928 222.787 288.995 222.973 290.115 222.973C291.537 222.973 292.631 222.662 293.395 222.04C294.177 221.4 294.568 220.547 294.568 219.48C294.568 218.324 294.142 217.453 293.288 216.867C292.435 216.28 290.968 215.987 288.888 215.987H284.675L285.662 206.333H296.168V208.467H287.822L287.288 213.827H289.475ZM301.509 225.133C301.029 225.133 300.621 224.973 300.283 224.653C299.945 224.316 299.776 223.898 299.776 223.4C299.776 222.902 299.945 222.493 300.283 222.173C300.621 221.836 301.029 221.667 301.509 221.667C301.989 221.667 302.398 221.836 302.736 222.173C303.074 222.493 303.243 222.902 303.243 223.4C303.243 223.898 303.074 224.316 302.736 224.653C302.398 224.973 301.989 225.133 301.509 225.133ZM312.52 225.213C311.044 225.213 309.728 224.831 308.573 224.067C307.435 223.284 306.537 222.173 305.88 220.733C305.24 219.293 304.92 217.604 304.92 215.667C304.92 213.711 305.24 212.013 305.88 210.573C306.537 209.133 307.435 208.031 308.573 207.267C309.728 206.502 311.044 206.12 312.52 206.12C314.013 206.12 315.328 206.502 316.466 207.267C317.622 208.031 318.52 209.133 319.16 210.573C319.8 212.013 320.12 213.711 320.12 215.667C320.12 217.622 319.8 219.32 319.16 220.76C318.52 222.2 317.622 223.302 316.466 224.067C315.311 224.831 313.995 225.213 312.52 225.213ZM312.52 222.973C314.031 222.973 315.24 222.342 316.146 221.08C317.053 219.818 317.506 218.013 317.506 215.667C317.506 213.32 317.053 211.516 316.146 210.253C315.24 208.991 314.031 208.36 312.52 208.36C311.008 208.36 309.8 208.991 308.893 210.253C308.004 211.516 307.56 213.32 307.56 215.667C307.56 218.013 308.004 219.818 308.893 221.08C309.8 222.342 311.008 222.973 312.52 222.973ZM332.314 215.213C333.47 215.587 334.358 216.164 334.981 216.947C335.621 217.729 335.941 218.662 335.941 219.747C335.941 220.849 335.638 221.818 335.034 222.653C334.43 223.471 333.567 224.102 332.447 224.547C331.327 224.991 330.021 225.213 328.527 225.213C327.016 225.213 325.701 224.991 324.581 224.547C323.478 224.102 322.625 223.471 322.021 222.653C321.434 221.836 321.141 220.867 321.141 219.747C321.141 218.644 321.452 217.711 322.074 216.947C322.696 216.164 323.585 215.587 324.741 215.213C323.798 214.858 323.07 214.333 322.554 213.64C322.056 212.929 321.807 212.102 321.807 211.16C321.807 210.129 322.083 209.24 322.634 208.493C323.203 207.729 323.994 207.142 325.007 206.733C326.021 206.324 327.194 206.12 328.527 206.12C329.878 206.12 331.061 206.324 332.074 206.733C333.087 207.142 333.87 207.729 334.421 208.493C334.99 209.24 335.274 210.129 335.274 211.16C335.274 212.102 335.016 212.929 334.501 213.64C333.985 214.333 333.256 214.858 332.314 215.213ZM328.527 208.093C327.265 208.093 326.261 208.378 325.514 208.947C324.767 209.498 324.394 210.262 324.394 211.24C324.394 212.2 324.758 212.956 325.487 213.507C326.234 214.058 327.247 214.333 328.527 214.333C329.807 214.333 330.821 214.058 331.567 213.507C332.314 212.938 332.687 212.182 332.687 211.24C332.687 210.262 332.314 209.498 331.567 208.947C330.821 208.378 329.807 208.093 328.527 208.093ZM328.527 223.213C330.021 223.213 331.194 222.902 332.047 222.28C332.901 221.64 333.327 220.778 333.327 219.693C333.327 218.627 332.901 217.782 332.047 217.16C331.194 216.52 330.021 216.2 328.527 216.2C327.052 216.2 325.887 216.52 325.034 217.16C324.198 217.782 323.781 218.627 323.781 219.693C323.781 220.778 324.198 221.64 325.034 222.28C325.887 222.902 327.052 223.213 328.527 223.213Z" fill="#BDBDBD"/>
</svg>
