<svg width="572" height="380" viewBox="0 0 572 380" fill="none" xmlns="http://www.w3.org/2000/svg">
<rect width="572" height="380" rx="20" fill="black" fill-opacity="0.33"/>
<path d="M95.4733 153.222V175H91.9267V153.222H95.4733ZM103.837 169.4V175H100.321V153.222H103.837V164.889L114.446 153.222H118.397L109.655 163.022L118.957 175H114.819L107.321 165.604L103.837 169.4ZM135.887 175H120.549V153.222H135.482V156.24H124.065V162.493H134.207V165.418H124.065V171.982H135.887V175ZM142.164 169.773L140.018 175H136.378L145.742 153.222H149.227L158.56 175H154.858L152.711 169.773H142.164ZM147.453 156.924L143.315 166.911H151.56L147.453 156.924ZM172.86 175.28C171.263 175.28 169.728 175.041 168.255 174.564C166.803 174.067 165.642 173.413 164.771 172.604L166.046 169.836C166.855 170.561 167.871 171.153 169.095 171.609C170.34 172.065 171.594 172.293 172.86 172.293C174.457 172.293 175.649 172.013 176.437 171.453C177.225 170.873 177.62 170.116 177.62 169.182C177.62 168.498 177.391 167.938 176.935 167.502C176.5 167.067 175.94 166.724 175.255 166.476C174.591 166.227 173.679 165.957 172.517 165.667C170.983 165.293 169.728 164.91 168.753 164.516C167.778 164.121 166.948 163.51 166.264 162.68C165.58 161.83 165.237 160.71 165.237 159.32C165.237 158.138 165.538 157.07 166.14 156.116C166.741 155.141 167.654 154.373 168.877 153.813C170.122 153.233 171.636 152.942 173.42 152.942C174.685 152.942 175.919 153.108 177.122 153.44C178.325 153.772 179.362 154.249 180.233 154.871L179.113 157.702C178.2 157.121 177.257 156.686 176.282 156.396C175.307 156.084 174.343 155.929 173.388 155.929C171.833 155.929 170.671 156.23 169.904 156.831C169.137 157.433 168.753 158.21 168.753 159.164C168.753 159.849 168.971 160.409 169.406 160.844C169.863 161.28 170.423 161.622 171.086 161.871C171.771 162.12 172.704 162.39 173.886 162.68C175.421 163.053 176.665 163.437 177.62 163.831C178.594 164.225 179.424 164.837 180.108 165.667C180.793 166.476 181.135 167.564 181.135 168.933C181.135 170.116 180.824 171.184 180.202 172.138C179.6 173.092 178.677 173.859 177.433 174.44C176.188 175 174.664 175.28 172.86 175.28ZM202.326 175H199.402L187.642 159.569V175H184.157V153.222H187.082L198.842 168.653V153.222H202.326V175ZM213.465 175.28C211.868 175.28 210.333 175.041 208.861 174.564C207.409 174.067 206.247 173.413 205.376 172.604L206.652 169.836C207.461 170.561 208.477 171.153 209.701 171.609C210.945 172.065 212.2 172.293 213.465 172.293C215.062 172.293 216.255 172.013 217.043 171.453C217.831 170.873 218.225 170.116 218.225 169.182C218.225 168.498 217.997 167.938 217.541 167.502C217.105 167.067 216.545 166.724 215.861 166.476C215.197 166.227 214.284 165.957 213.123 165.667C211.588 165.293 210.333 164.91 209.358 164.516C208.384 164.121 207.554 163.51 206.869 162.68C206.185 161.83 205.843 160.71 205.843 159.32C205.843 158.138 206.144 157.07 206.745 156.116C207.346 155.141 208.259 154.373 209.483 153.813C210.727 153.233 212.241 152.942 214.025 152.942C215.29 152.942 216.524 153.108 217.727 153.44C218.93 153.772 219.967 154.249 220.838 154.871L219.718 157.702C218.806 157.121 217.862 156.686 216.887 156.396C215.912 156.084 214.948 155.929 213.994 155.929C212.438 155.929 211.277 156.23 210.509 156.831C209.742 157.433 209.358 158.21 209.358 159.164C209.358 159.849 209.576 160.409 210.012 160.844C210.468 161.28 211.028 161.622 211.692 161.871C212.376 162.12 213.309 162.39 214.492 162.68C216.026 163.053 217.271 163.437 218.225 163.831C219.2 164.225 220.029 164.837 220.714 165.667C221.398 166.476 221.741 167.564 221.741 168.933C221.741 170.116 221.429 171.184 220.807 172.138C220.206 173.092 219.283 173.859 218.038 174.44C216.794 175 215.269 175.28 213.465 175.28ZM244.736 176.058H241.376V152.164H244.736V176.058ZM236.491 171.267C237.757 171.059 238.866 170.727 239.82 170.271V173.476C239.094 173.87 238.099 174.181 236.834 174.409C235.589 174.637 234.262 174.751 232.851 174.751H223.736V171.547H226.1V156.116H223.86V152.911H238.731V156.116H236.491V171.267ZM231.234 171.547C232.126 171.547 232.779 171.536 233.194 171.516V156.116H229.429V171.547H231.234ZM252.728 156.209V164.018H269.559V167.284H249.275V152.911H269.31V156.209H252.728ZM247.875 175.031V171.733H270.679V175.031H247.875ZM296.833 165.107V152.164H300.193V165.107H296.833ZM279.597 163.427V152.631H293.348V163.427H279.597ZM282.957 155.524V160.502H290.019V155.524H282.957ZM290.019 172.853C288.899 173.849 287.468 174.596 285.726 175.093C284.005 175.612 282.169 175.871 280.219 175.871V172.947C282.128 172.947 283.87 172.636 285.446 172.013C287.022 171.391 288.08 170.541 288.619 169.462H280.437V166.6H288.682V164.516H292.104V166.6H300.379V169.462H292.259C292.197 169.773 292.083 170.126 291.917 170.52L301.033 173.32L300.099 176.182L290.019 172.853ZM310.604 167.316V164.049H314.4V156.271H310.822V153.004H330.92V156.271H327.342V164.049H331.137V167.316H310.604ZM323.982 164.049V156.271H317.76V164.049H323.982ZM332.257 175.031H309.453V171.702H332.257V175.031ZM356.894 175.031H334.09V171.796H343.765V168H335.521V158.947H352.196V156.022H335.521V152.911H355.525V161.933H338.881V164.858H355.805V168H347.188V171.796H356.894V175.031ZM381.531 175.031H358.726V171.733H368.433V166.724H360.126V152.911H380.131V166.724H371.824V171.733H381.531V175.031ZM376.771 163.427V156.209H363.518V163.427H376.771ZM397.332 162.338V159.413H401.719V157.142H397.332V154.218H401.719V152.164H405.048V169.898H401.719V162.338H397.332ZM390.892 161.498C390 163.033 388.911 164.277 387.625 165.231C386.36 166.185 384.95 166.745 383.394 166.911V163.613C384.68 163.406 385.8 162.763 386.754 161.684C387.729 160.606 388.476 159.247 388.994 157.609C389.534 155.95 389.814 154.187 389.834 152.32L393.225 152.538C393.225 154.633 392.904 156.644 392.261 158.573L399.012 164.329L396.896 166.756L390.892 161.498ZM405.452 175.871H385.323V168.093H388.745V172.698H405.452V175.871ZM430.151 176.058H427.071V152.164H430.151V176.058ZM424.862 152.289V175.653H421.813V164.858H419.511V161.498H421.813V152.289H424.862ZM418.049 171.329C418.878 171.184 419.667 170.945 420.413 170.613V173.724C419.044 174.409 416.856 174.751 413.849 174.751H407.875V171.64H409.587V156.022H408.031V152.911H419.667V156.022H418.049V171.329ZM412.573 171.64C413.693 171.64 414.523 171.619 415.062 171.578V156.022H412.573V171.64ZM450.805 176.058V152.164H454.197V176.058H450.805ZM440.508 152.6C442.644 152.6 444.334 153.544 445.579 155.431C446.823 157.298 447.445 160.098 447.445 163.831C447.445 167.564 446.823 170.375 445.579 172.262C444.334 174.129 442.644 175.062 440.508 175.062C438.351 175.062 436.64 174.129 435.374 172.262C434.13 170.375 433.508 167.564 433.508 163.831C433.508 160.098 434.13 157.298 435.374 155.431C436.64 153.544 438.351 152.6 440.508 152.6ZM440.508 155.867C439.388 155.867 438.496 156.51 437.832 157.796C437.168 159.081 436.837 161.093 436.837 163.831C436.837 166.569 437.168 168.581 437.832 169.867C438.496 171.153 439.388 171.796 440.508 171.796C441.607 171.796 442.478 171.153 443.121 169.867C443.785 168.581 444.117 166.569 444.117 163.831C444.117 161.093 443.785 159.081 443.121 157.796C442.478 156.51 441.607 155.867 440.508 155.867ZM478.802 176.058H475.442V152.164H478.802V176.058ZM467.384 156.147C467.322 158.884 467.104 161.207 466.731 163.116L473.824 172.511L471.18 174.596L465.642 167.067C464.792 169.41 463.693 171.246 462.344 172.573C460.996 173.88 459.472 174.606 457.771 174.751V171.204C458.995 170.997 460.063 170.24 460.976 168.933C461.909 167.606 462.635 165.843 463.153 163.644C463.672 161.446 463.952 158.947 463.993 156.147H458.331V152.911H472.86V156.147H467.384Z" fill="white"/>
<path d="M249.185 225H235.825V223.267L243.425 215.853C244.349 214.947 244.972 214.173 245.292 213.533C245.612 212.876 245.772 212.209 245.772 211.533C245.772 210.538 245.425 209.756 244.732 209.187C244.056 208.618 243.078 208.333 241.798 208.333C239.736 208.333 238.154 209.018 237.052 210.387L235.185 209.08C235.914 208.138 236.856 207.409 238.012 206.893C239.167 206.378 240.5 206.12 242.012 206.12C243.949 206.12 245.496 206.582 246.652 207.507C247.807 208.431 248.385 209.693 248.385 211.293C248.385 212.271 248.172 213.204 247.745 214.093C247.318 214.964 246.509 215.978 245.318 217.133L239.532 222.813H249.185V225ZM258.473 225.213C256.997 225.213 255.682 224.831 254.526 224.067C253.388 223.284 252.49 222.173 251.833 220.733C251.193 219.293 250.873 217.604 250.873 215.667C250.873 213.711 251.193 212.013 251.833 210.573C252.49 209.133 253.388 208.031 254.526 207.267C255.682 206.502 256.997 206.12 258.473 206.12C259.966 206.12 261.282 206.502 262.419 207.267C263.575 208.031 264.473 209.133 265.113 210.573C265.753 212.013 266.073 213.711 266.073 215.667C266.073 217.622 265.753 219.32 265.113 220.76C264.473 222.2 263.575 223.302 262.419 224.067C261.264 224.831 259.948 225.213 258.473 225.213ZM258.473 222.973C259.984 222.973 261.193 222.342 262.099 221.08C263.006 219.818 263.459 218.013 263.459 215.667C263.459 213.32 263.006 211.516 262.099 210.253C261.193 208.991 259.984 208.36 258.473 208.36C256.962 208.36 255.753 208.991 254.846 210.253C253.957 211.516 253.513 213.32 253.513 215.667C253.513 218.013 253.957 219.818 254.846 221.08C255.753 222.342 256.962 222.973 258.473 222.973ZM281.2 225H267.84V223.267L275.44 215.853C276.365 214.947 276.987 214.173 277.307 213.533C277.627 212.876 277.787 212.209 277.787 211.533C277.787 210.538 277.44 209.756 276.747 209.187C276.072 208.618 275.094 208.333 273.814 208.333C271.752 208.333 270.169 209.018 269.067 210.387L267.2 209.08C267.929 208.138 268.872 207.409 270.027 206.893C271.183 206.378 272.516 206.12 274.027 206.12C275.965 206.12 277.512 206.582 278.667 207.507C279.823 208.431 280.4 209.693 280.4 211.293C280.4 212.271 280.187 213.204 279.76 214.093C279.334 214.964 278.525 215.978 277.334 217.133L271.547 222.813H281.2V225ZM289.475 213.827C292.159 213.827 294.115 214.324 295.342 215.32C296.586 216.298 297.208 217.667 297.208 219.427C297.208 220.511 296.942 221.489 296.408 222.36C295.893 223.231 295.102 223.924 294.035 224.44C292.986 224.956 291.697 225.213 290.168 225.213C288.853 225.213 287.582 225.009 286.355 224.6C285.128 224.173 284.133 223.613 283.368 222.92L284.488 220.947C285.111 221.551 285.919 222.04 286.915 222.413C287.928 222.787 288.995 222.973 290.115 222.973C291.537 222.973 292.631 222.662 293.395 222.04C294.177 221.4 294.568 220.547 294.568 219.48C294.568 218.324 294.142 217.453 293.288 216.867C292.435 216.28 290.968 215.987 288.888 215.987H284.675L285.662 206.333H296.168V208.467H287.822L287.288 213.827H289.475ZM301.509 225.133C301.029 225.133 300.621 224.973 300.283 224.653C299.945 224.316 299.776 223.898 299.776 223.4C299.776 222.902 299.945 222.493 300.283 222.173C300.621 221.836 301.029 221.667 301.509 221.667C301.989 221.667 302.398 221.836 302.736 222.173C303.074 222.493 303.243 222.902 303.243 223.4C303.243 223.898 303.074 224.316 302.736 224.653C302.398 224.973 301.989 225.133 301.509 225.133ZM314.653 225H312.04V208.467H307.826V206.333H314.653V225ZM330.661 225H328.047V208.467H323.834V206.333H330.661V225Z" fill="#BDBDBD"/>
</svg>
