<svg width="572" height="380" viewBox="0 0 572 380" fill="none" xmlns="http://www.w3.org/2000/svg">
<rect width="572" height="380" rx="20" fill="black" fill-opacity="0.33"/>
<path d="M105.409 175H101.893V165.511H90.7867V175H87.2711V153.222H90.7867V162.369H101.893V153.222H105.409V175ZM125.152 175H109.815V153.222H124.748V156.24H113.33V162.493H123.472V165.418H113.33V171.982H125.152V175ZM142.381 163.707C143.708 164.059 144.735 164.702 145.461 165.636C146.187 166.569 146.55 167.73 146.55 169.12C146.55 171.007 145.865 172.459 144.497 173.476C143.148 174.492 141.157 175 138.523 175H128.381V153.222H137.932C140.359 153.222 142.225 153.72 143.532 154.716C144.839 155.711 145.492 157.09 145.492 158.853C145.492 159.994 145.212 160.979 144.652 161.809C144.113 162.639 143.356 163.271 142.381 163.707ZM131.897 162.587H137.528C138.959 162.587 140.048 162.317 140.794 161.778C141.562 161.218 141.945 160.399 141.945 159.32C141.945 158.241 141.562 157.433 140.794 156.893C140.048 156.333 138.959 156.053 137.528 156.053H131.897V162.587ZM138.274 172.169C141.427 172.169 143.003 171.039 143.003 168.778C143.003 166.496 141.427 165.356 138.274 165.356H131.897V172.169H138.274ZM158.898 168.467C158.525 168.508 158.224 168.529 157.996 168.529H153.174V175H149.627V153.222H157.996C160.692 153.222 162.818 153.907 164.374 155.276C165.95 156.644 166.738 158.521 166.738 160.907C166.738 162.566 166.344 163.987 165.556 165.169C164.789 166.33 163.679 167.191 162.227 167.751L167.08 175H163.285L158.898 168.467ZM157.84 165.511C159.562 165.511 160.879 165.107 161.792 164.298C162.704 163.489 163.16 162.359 163.16 160.907C163.16 159.434 162.704 158.293 161.792 157.484C160.879 156.676 159.562 156.271 157.84 156.271H153.174V165.511H157.84ZM179.802 175.28C177.686 175.28 175.778 174.803 174.078 173.849C172.398 172.874 171.081 171.536 170.126 169.836C169.172 168.135 168.695 166.227 168.695 164.111C168.695 161.996 169.172 160.087 170.126 158.387C171.081 156.686 172.398 155.359 174.078 154.404C175.778 153.43 177.686 152.942 179.802 152.942C181.897 152.942 183.784 153.43 185.464 154.404C187.165 155.359 188.492 156.686 189.446 158.387C190.421 160.087 190.909 161.996 190.909 164.111C190.909 166.227 190.421 168.135 189.446 169.836C188.492 171.536 187.165 172.874 185.464 173.849C183.784 174.803 181.897 175.28 179.802 175.28ZM179.802 172.107C181.212 172.107 182.488 171.764 183.629 171.08C184.79 170.396 185.692 169.452 186.335 168.249C186.999 167.025 187.331 165.646 187.331 164.111C187.331 162.576 186.999 161.207 186.335 160.004C185.692 158.781 184.79 157.827 183.629 157.142C182.488 156.458 181.212 156.116 179.802 156.116C178.371 156.116 177.075 156.458 175.913 157.142C174.772 157.827 173.87 158.781 173.206 160.004C172.563 161.207 172.242 162.576 172.242 164.111C172.242 165.646 172.563 167.025 173.206 168.249C173.87 169.452 174.772 170.396 175.913 171.08C177.075 171.764 178.371 172.107 179.802 172.107ZM212.373 175H209.448L197.688 159.569V175H194.204V153.222H197.128L208.888 168.653V153.222H212.373V175ZM231.469 153.222C234.165 153.222 236.291 153.907 237.846 155.276C239.423 156.644 240.211 158.521 240.211 160.907C240.211 162.483 239.858 163.852 239.153 165.013C238.448 166.154 237.432 167.036 236.104 167.658C234.798 168.259 233.252 168.56 231.469 168.56H226.646V175H223.1V153.222H231.469ZM231.313 165.511C233.035 165.511 234.352 165.107 235.264 164.298C236.177 163.489 236.633 162.359 236.633 160.907C236.633 159.434 236.177 158.293 235.264 157.484C234.352 156.676 233.035 156.271 231.313 156.271H226.646V165.511H231.313ZM252.605 168.467C252.232 168.508 251.931 168.529 251.703 168.529H246.881V175H243.334V153.222H251.703C254.399 153.222 256.525 153.907 258.081 155.276C259.657 156.644 260.445 158.521 260.445 160.907C260.445 162.566 260.051 163.987 259.263 165.169C258.496 166.33 257.386 167.191 255.934 167.751L260.787 175H256.992L252.605 168.467ZM251.548 165.511C253.269 165.511 254.586 165.107 255.499 164.298C256.411 163.489 256.868 162.359 256.868 160.907C256.868 159.434 256.411 158.293 255.499 157.484C254.586 156.676 253.269 156.271 251.548 156.271H246.881V165.511H251.548ZM273.509 175.28C271.393 175.28 269.485 174.803 267.785 173.849C266.105 172.874 264.788 171.536 263.833 169.836C262.879 168.135 262.402 166.227 262.402 164.111C262.402 161.996 262.879 160.087 263.833 158.387C264.788 156.686 266.105 155.359 267.785 154.404C269.485 153.43 271.393 152.942 273.509 152.942C275.604 152.942 277.491 153.43 279.171 154.404C280.872 155.359 282.199 156.686 283.153 158.387C284.128 160.087 284.616 161.996 284.616 164.111C284.616 166.227 284.128 168.135 283.153 169.836C282.199 171.536 280.872 172.874 279.171 173.849C277.491 174.803 275.604 175.28 273.509 175.28ZM273.509 172.107C274.919 172.107 276.195 171.764 277.336 171.08C278.497 170.396 279.399 169.452 280.042 168.249C280.706 167.025 281.038 165.646 281.038 164.111C281.038 162.576 280.706 161.207 280.042 160.004C279.399 158.781 278.497 157.827 277.336 157.142C276.195 156.458 274.919 156.116 273.509 156.116C272.078 156.116 270.782 156.458 269.62 157.142C268.479 157.827 267.577 158.781 266.913 160.004C266.271 161.207 265.949 162.576 265.949 164.111C265.949 165.646 266.271 167.025 266.913 168.249C267.577 169.452 268.479 170.396 269.62 171.08C270.782 171.764 272.078 172.107 273.509 172.107ZM290.96 175.28C289.674 175.28 288.481 175.01 287.382 174.471C286.304 173.911 285.422 173.133 284.738 172.138L286.698 169.68C287.838 171.36 289.218 172.2 290.835 172.2C293.096 172.2 294.227 170.8 294.227 168V156.24H286.791V153.222H297.711V167.844C297.711 172.801 295.461 175.28 290.96 175.28ZM317.461 175H302.123V153.222H317.057V156.24H305.639V162.493H315.781V165.418H305.639V171.982H317.461V175ZM330.427 175.28C328.353 175.28 326.476 174.803 324.796 173.849C323.116 172.874 321.799 171.536 320.845 169.836C319.891 168.135 319.414 166.227 319.414 164.111C319.414 161.975 319.891 160.067 320.845 158.387C321.799 156.686 323.116 155.359 324.796 154.404C326.476 153.43 328.364 152.942 330.459 152.942C332.118 152.942 333.642 153.243 335.032 153.844C336.421 154.446 337.583 155.317 338.516 156.458L336.276 158.698C334.741 156.976 332.854 156.116 330.614 156.116C329.162 156.116 327.856 156.458 326.694 157.142C325.533 157.827 324.62 158.781 323.956 160.004C323.293 161.228 322.961 162.597 322.961 164.111C322.961 165.625 323.293 166.994 323.956 168.218C324.62 169.441 325.533 170.396 326.694 171.08C327.856 171.764 329.162 172.107 330.614 172.107C332.854 172.107 334.741 171.236 336.276 169.493L338.516 171.733C337.583 172.895 336.421 173.776 335.032 174.378C333.642 174.979 332.107 175.28 330.427 175.28ZM339.146 156.271V153.222H356.537V156.271H349.599V175H346.084V156.271H339.146ZM387.112 159.756H384.125V165.356H380.765V152.164H384.125V156.364H387.112V159.756ZM371.121 160.036C370.229 161.446 369.109 162.587 367.761 163.458C366.434 164.308 364.94 164.827 363.281 165.013V161.809C364.608 161.601 365.76 161.062 366.734 160.191C367.73 159.32 368.487 158.21 369.005 156.862C369.545 155.493 369.825 153.979 369.845 152.32L373.205 152.538C373.205 154.218 372.957 155.804 372.459 157.298L379.148 161.84L377.437 164.422L371.121 160.036ZM374.481 165.947C377.488 165.947 379.894 166.361 381.699 167.191C383.503 168 384.405 169.286 384.405 171.049C384.405 172.833 383.503 174.139 381.699 174.969C379.894 175.778 377.488 176.182 374.481 176.182C371.474 176.182 369.068 175.778 367.263 174.969C365.459 174.139 364.557 172.833 364.557 171.049C364.557 169.286 365.459 168 367.263 167.191C369.088 166.361 371.494 165.947 374.481 165.947ZM374.481 173.289C376.368 173.289 377.893 173.102 379.054 172.729C380.216 172.356 380.797 171.796 380.797 171.049C380.797 170.302 380.216 169.753 379.054 169.4C377.893 169.027 376.368 168.84 374.481 168.84C372.594 168.84 371.069 169.027 369.908 169.4C368.746 169.753 368.165 170.302 368.165 171.049C368.165 171.796 368.746 172.356 369.908 172.729C371.069 173.102 372.594 173.289 374.481 173.289ZM410.038 176.058H406.864V152.164H410.038V176.058ZM404.22 152.289V175.653H401.047V163.364H397.904V160.004H401.047V152.289H404.22ZM395.727 152.818C395.727 156.572 395.561 159.807 395.229 162.524L400.58 173.009L397.811 174.471L394.202 167.347C392.978 171.827 390.915 174.295 388.011 174.751V171.173C390.998 170.323 392.512 164.163 392.553 152.693L395.727 152.818ZM434.674 176.058H431.594V152.164H434.674V176.058ZM429.386 152.289V175.653H426.337V164.858H424.034V161.498H426.337V152.289H429.386ZM422.572 171.329C423.402 171.184 424.19 170.945 424.937 170.613V173.724C423.568 174.409 421.38 174.751 418.372 174.751H412.399V171.64H414.11V156.022H412.554V152.911H424.19V156.022H422.572V171.329ZM417.097 171.64C418.217 171.64 419.046 171.619 419.586 171.578V156.022H417.097V171.64ZM455.329 176.058V152.164H458.72V176.058H455.329ZM445.031 152.6C447.167 152.6 448.858 153.544 450.102 155.431C451.347 157.298 451.969 160.098 451.969 163.831C451.969 167.564 451.347 170.375 450.102 172.262C448.858 174.129 447.167 175.062 445.031 175.062C442.874 175.062 441.163 174.129 439.898 172.262C438.653 170.375 438.031 167.564 438.031 163.831C438.031 160.098 438.653 157.298 439.898 155.431C441.163 153.544 442.874 152.6 445.031 152.6ZM445.031 155.867C443.911 155.867 443.019 156.51 442.356 157.796C441.692 159.081 441.36 161.093 441.36 163.831C441.36 166.569 441.692 168.581 442.356 169.867C443.019 171.153 443.911 171.796 445.031 171.796C446.13 171.796 447.002 171.153 447.644 169.867C448.308 168.581 448.64 166.569 448.64 163.831C448.64 161.093 448.308 159.081 447.644 157.796C447.002 156.51 446.13 155.867 445.031 155.867ZM483.326 176.058H479.966V152.164H483.326V176.058ZM471.908 156.147C471.846 158.884 471.628 161.207 471.255 163.116L478.348 172.511L475.703 174.596L470.166 167.067C469.315 169.41 468.216 171.246 466.868 172.573C465.52 173.88 463.995 174.606 462.295 174.751V171.204C463.518 170.997 464.586 170.24 465.499 168.933C466.432 167.606 467.158 165.843 467.677 163.644C468.195 161.446 468.475 158.947 468.517 156.147H462.855V152.911H477.383V156.147H471.908Z" fill="white"/>
<path d="M249.185 225H235.825V223.267L243.425 215.853C244.349 214.947 244.972 214.173 245.292 213.533C245.612 212.876 245.772 212.209 245.772 211.533C245.772 210.538 245.425 209.756 244.732 209.187C244.056 208.618 243.078 208.333 241.798 208.333C239.736 208.333 238.154 209.018 237.052 210.387L235.185 209.08C235.914 208.138 236.856 207.409 238.012 206.893C239.167 206.378 240.5 206.12 242.012 206.12C243.949 206.12 245.496 206.582 246.652 207.507C247.807 208.431 248.385 209.693 248.385 211.293C248.385 212.271 248.172 213.204 247.745 214.093C247.318 214.964 246.509 215.978 245.318 217.133L239.532 222.813H249.185V225ZM258.473 225.213C256.997 225.213 255.682 224.831 254.526 224.067C253.388 223.284 252.49 222.173 251.833 220.733C251.193 219.293 250.873 217.604 250.873 215.667C250.873 213.711 251.193 212.013 251.833 210.573C252.49 209.133 253.388 208.031 254.526 207.267C255.682 206.502 256.997 206.12 258.473 206.12C259.966 206.12 261.282 206.502 262.419 207.267C263.575 208.031 264.473 209.133 265.113 210.573C265.753 212.013 266.073 213.711 266.073 215.667C266.073 217.622 265.753 219.32 265.113 220.76C264.473 222.2 263.575 223.302 262.419 224.067C261.264 224.831 259.948 225.213 258.473 225.213ZM258.473 222.973C259.984 222.973 261.193 222.342 262.099 221.08C263.006 219.818 263.459 218.013 263.459 215.667C263.459 213.32 263.006 211.516 262.099 210.253C261.193 208.991 259.984 208.36 258.473 208.36C256.962 208.36 255.753 208.991 254.846 210.253C253.957 211.516 253.513 213.32 253.513 215.667C253.513 218.013 253.957 219.818 254.846 221.08C255.753 222.342 256.962 222.973 258.473 222.973ZM281.2 225H267.84V223.267L275.44 215.853C276.365 214.947 276.987 214.173 277.307 213.533C277.627 212.876 277.787 212.209 277.787 211.533C277.787 210.538 277.44 209.756 276.747 209.187C276.072 208.618 275.094 208.333 273.814 208.333C271.752 208.333 270.169 209.018 269.067 210.387L267.2 209.08C267.929 208.138 268.872 207.409 270.027 206.893C271.183 206.378 272.516 206.12 274.027 206.12C275.965 206.12 277.512 206.582 278.667 207.507C279.823 208.431 280.4 209.693 280.4 211.293C280.4 212.271 280.187 213.204 279.76 214.093C279.334 214.964 278.525 215.978 277.334 217.133L271.547 222.813H281.2V225ZM289.475 213.827C292.159 213.827 294.115 214.324 295.342 215.32C296.586 216.298 297.208 217.667 297.208 219.427C297.208 220.511 296.942 221.489 296.408 222.36C295.893 223.231 295.102 223.924 294.035 224.44C292.986 224.956 291.697 225.213 290.168 225.213C288.853 225.213 287.582 225.009 286.355 224.6C285.128 224.173 284.133 223.613 283.368 222.92L284.488 220.947C285.111 221.551 285.919 222.04 286.915 222.413C287.928 222.787 288.995 222.973 290.115 222.973C291.537 222.973 292.631 222.662 293.395 222.04C294.177 221.4 294.568 220.547 294.568 219.48C294.568 218.324 294.142 217.453 293.288 216.867C292.435 216.28 290.968 215.987 288.888 215.987H284.675L285.662 206.333H296.168V208.467H287.822L287.288 213.827H289.475ZM301.509 225.133C301.029 225.133 300.621 224.973 300.283 224.653C299.945 224.316 299.776 223.898 299.776 223.4C299.776 222.902 299.945 222.493 300.283 222.173C300.621 221.836 301.029 221.667 301.509 221.667C301.989 221.667 302.398 221.836 302.736 222.173C303.074 222.493 303.243 222.902 303.243 223.4C303.243 223.898 303.074 224.316 302.736 224.653C302.398 224.973 301.989 225.133 301.509 225.133ZM312.52 225.213C311.044 225.213 309.728 224.831 308.573 224.067C307.435 223.284 306.537 222.173 305.88 220.733C305.24 219.293 304.92 217.604 304.92 215.667C304.92 213.711 305.24 212.013 305.88 210.573C306.537 209.133 307.435 208.031 308.573 207.267C309.728 206.502 311.044 206.12 312.52 206.12C314.013 206.12 315.328 206.502 316.466 207.267C317.622 208.031 318.52 209.133 319.16 210.573C319.8 212.013 320.12 213.711 320.12 215.667C320.12 217.622 319.8 219.32 319.16 220.76C318.52 222.2 317.622 223.302 316.466 224.067C315.311 224.831 313.995 225.213 312.52 225.213ZM312.52 222.973C314.031 222.973 315.24 222.342 316.146 221.08C317.053 219.818 317.506 218.013 317.506 215.667C317.506 213.32 317.053 211.516 316.146 210.253C315.24 208.991 314.031 208.36 312.52 208.36C311.008 208.36 309.8 208.991 308.893 210.253C308.004 211.516 307.56 213.32 307.56 215.667C307.56 218.013 308.004 219.818 308.893 221.08C309.8 222.342 311.008 222.973 312.52 222.973ZM332.314 215.213C333.47 215.587 334.358 216.164 334.981 216.947C335.621 217.729 335.941 218.662 335.941 219.747C335.941 220.849 335.638 221.818 335.034 222.653C334.43 223.471 333.567 224.102 332.447 224.547C331.327 224.991 330.021 225.213 328.527 225.213C327.016 225.213 325.701 224.991 324.581 224.547C323.478 224.102 322.625 223.471 322.021 222.653C321.434 221.836 321.141 220.867 321.141 219.747C321.141 218.644 321.452 217.711 322.074 216.947C322.696 216.164 323.585 215.587 324.741 215.213C323.798 214.858 323.07 214.333 322.554 213.64C322.056 212.929 321.807 212.102 321.807 211.16C321.807 210.129 322.083 209.24 322.634 208.493C323.203 207.729 323.994 207.142 325.007 206.733C326.021 206.324 327.194 206.12 328.527 206.12C329.878 206.12 331.061 206.324 332.074 206.733C333.087 207.142 333.87 207.729 334.421 208.493C334.99 209.24 335.274 210.129 335.274 211.16C335.274 212.102 335.016 212.929 334.501 213.64C333.985 214.333 333.256 214.858 332.314 215.213ZM328.527 208.093C327.265 208.093 326.261 208.378 325.514 208.947C324.767 209.498 324.394 210.262 324.394 211.24C324.394 212.2 324.758 212.956 325.487 213.507C326.234 214.058 327.247 214.333 328.527 214.333C329.807 214.333 330.821 214.058 331.567 213.507C332.314 212.938 332.687 212.182 332.687 211.24C332.687 210.262 332.314 209.498 331.567 208.947C330.821 208.378 329.807 208.093 328.527 208.093ZM328.527 223.213C330.021 223.213 331.194 222.902 332.047 222.28C332.901 221.64 333.327 220.778 333.327 219.693C333.327 218.627 332.901 217.782 332.047 217.16C331.194 216.52 330.021 216.2 328.527 216.2C327.052 216.2 325.887 216.52 325.034 217.16C324.198 217.782 323.781 218.627 323.781 219.693C323.781 220.778 324.198 221.64 325.034 222.28C325.887 222.902 327.052 223.213 328.527 223.213Z" fill="#BDBDBD"/>
</svg>
