<svg width="572" height="380" viewBox="0 0 572 380" fill="none" xmlns="http://www.w3.org/2000/svg">
<rect width="572" height="380" rx="20" fill="black" fill-opacity="0.33"/>
<path d="M138.587 176.058H135.196V164.889H130.84V174.751H117.991V152.818H121.289V160.564H127.542V152.818H130.84V161.56H135.196V152.164H138.587V176.058ZM127.542 163.8H121.289V171.516H127.542V163.8ZM146.392 156.209V164.018H163.223V167.284H142.939V152.911H162.974V156.209H146.392ZM141.539 175.031V171.733H164.343V175.031H141.539ZM187.113 164.671V176.058H183.753V152.164H187.113V161.249H190.038V164.671H187.113ZM175.353 171.453C178.402 171.453 180.653 171.121 182.105 170.458V173.787C181.337 174.098 180.352 174.336 179.149 174.502C177.967 174.668 176.66 174.751 175.229 174.751H166.176V171.453H171.962V167.222C170.386 166.87 169.11 166.04 168.136 164.733C167.182 163.427 166.705 161.84 166.705 159.973C166.705 158.521 166.995 157.236 167.576 156.116C168.177 154.975 169.007 154.093 170.065 153.471C171.122 152.849 172.325 152.538 173.673 152.538C175.001 152.538 176.193 152.849 177.251 153.471C178.33 154.093 179.17 154.975 179.771 156.116C180.373 157.236 180.673 158.521 180.673 159.973C180.673 161.84 180.186 163.427 179.211 164.733C178.236 166.04 176.95 166.87 175.353 167.222V171.453ZM173.673 155.711C172.533 155.711 171.62 156.116 170.936 156.924C170.272 157.713 169.94 158.729 169.94 159.973C169.94 161.218 170.272 162.244 170.936 163.053C171.62 163.841 172.533 164.236 173.673 164.236C174.793 164.236 175.696 163.831 176.38 163.022C177.085 162.213 177.438 161.197 177.438 159.973C177.438 158.75 177.085 157.733 176.38 156.924C175.696 156.116 174.793 155.711 173.673 155.711ZM208.981 176.058V152.164H212.372V176.058H208.981ZM198.683 152.6C200.82 152.6 202.51 153.544 203.755 155.431C204.999 157.298 205.621 160.098 205.621 163.831C205.621 167.564 204.999 170.375 203.755 172.262C202.51 174.129 200.82 175.062 198.683 175.062C196.526 175.062 194.815 174.129 193.55 172.262C192.306 170.375 191.683 167.564 191.683 163.831C191.683 160.098 192.306 157.298 193.55 155.431C194.815 153.544 196.526 152.6 198.683 152.6ZM198.683 155.867C197.563 155.867 196.672 156.51 196.008 157.796C195.344 159.081 195.012 161.093 195.012 163.831C195.012 166.569 195.344 168.581 196.008 169.867C196.672 171.153 197.563 171.796 198.683 171.796C199.783 171.796 200.654 171.153 201.297 169.867C201.961 168.581 202.292 166.569 202.292 163.831C202.292 161.093 201.961 159.081 201.297 157.796C200.654 156.51 199.783 155.867 198.683 155.867ZM237.134 176.058H233.774V164.111H228.578V160.782H233.774V152.164H237.134V176.058ZM225.218 156.147C225.156 158.573 224.948 160.855 224.596 162.991L231.72 172.542L228.982 174.564L223.476 166.973C222.646 169.359 221.568 171.215 220.24 172.542C218.913 173.87 217.399 174.606 215.698 174.751V171.204C216.922 170.997 217.99 170.24 218.902 168.933C219.815 167.606 220.52 165.843 221.018 163.644C221.516 161.446 221.775 158.947 221.796 156.147H216.258V152.911H230.631V156.147H225.218ZM247.638 167.502V152.818H250.967V156.956H264.314V152.818H267.643V167.502H247.638ZM264.314 160.067H250.967V164.329H264.314V160.067ZM269.043 175.031H246.238V171.733H269.043V175.031ZM283.724 170.053V152.289H286.866V158.262H289.853V152.164H293.026V170.458H289.853V161.436H286.866V170.053H283.724ZM282.386 166.289C281.017 166.87 278.995 167.16 276.319 167.16H271.466V158.449H278.186V155.556H271.466V152.631H281.297V161.218H274.577V164.236H276.537C279.109 164.236 281.059 163.956 282.386 163.396V166.289ZM293.493 175.871H272.773V168.809H276.195V172.698H293.493V175.871ZM313.68 165.356V152.164H317.04V165.356H313.68ZM299.836 155.587V161.187H305.84C307.168 161.187 308.402 161.104 309.543 160.938C310.683 160.751 311.586 160.502 312.249 160.191V163.147C311.586 163.458 310.683 163.707 309.543 163.893C308.423 164.059 307.168 164.142 305.778 164.142H296.445V152.631H310.756V155.587H299.836ZM307.272 165.947C310.32 165.947 312.758 166.361 314.583 167.191C316.408 168 317.32 169.286 317.32 171.049C317.32 172.833 316.408 174.139 314.583 174.969C312.758 175.778 310.32 176.182 307.272 176.182C304.223 176.182 301.775 175.778 299.929 174.969C298.104 174.139 297.192 172.833 297.192 171.049C297.192 169.286 298.104 168 299.929 167.191C301.775 166.361 304.223 165.947 307.272 165.947ZM307.272 168.84C305.363 168.84 303.808 169.027 302.605 169.4C301.423 169.753 300.832 170.302 300.832 171.049C300.832 171.796 301.423 172.356 302.605 172.729C303.808 173.102 305.363 173.289 307.272 173.289C309.18 173.289 310.725 173.102 311.907 172.729C313.11 172.356 313.712 171.796 313.712 171.049C313.712 170.302 313.11 169.753 311.907 169.4C310.725 169.027 309.18 168.84 307.272 168.84ZM344.47 165.107V152.164H347.83V165.107H344.47ZM327.234 163.427V152.631H340.985V163.427H327.234ZM330.594 155.524V160.502H337.656V155.524H330.594ZM337.656 172.853C336.536 173.849 335.105 174.596 333.363 175.093C331.641 175.612 329.806 175.871 327.856 175.871V172.947C329.764 172.947 331.507 172.636 333.083 172.013C334.659 171.391 335.717 170.541 336.256 169.462H328.074V166.6H336.318V164.516H339.741V166.6H348.016V169.462H339.896C339.834 169.773 339.72 170.126 339.554 170.52L348.67 173.32L347.736 176.182L337.656 172.853ZM358.241 167.316V164.049H362.036V156.271H358.459V153.004H378.556V156.271H374.979V164.049H378.774V167.316H358.241ZM371.619 164.049V156.271H365.396V164.049H371.619ZM379.894 175.031H357.09V171.702H379.894V175.031ZM404.531 175.031H381.726V171.796H391.402V168H383.158V158.947H399.833V156.022H383.158V152.911H403.162V161.933H386.518V164.858H403.442V168H394.824V171.796H404.531V175.031ZM429.168 175.031H406.363V171.733H416.07V166.724H407.763V152.911H427.768V166.724H419.461V171.733H429.168V175.031ZM424.408 163.427V156.209H411.154V163.427H424.408ZM444.969 162.338V159.413H449.355V157.142H444.969V154.218H449.355V152.164H452.684V169.898H449.355V162.338H444.969ZM438.529 161.498C437.637 163.033 436.548 164.277 435.262 165.231C433.997 166.185 432.587 166.745 431.031 166.911V163.613C432.317 163.406 433.437 162.763 434.391 161.684C435.366 160.606 436.112 159.247 436.631 157.609C437.17 155.95 437.45 154.187 437.471 152.32L440.862 152.538C440.862 154.633 440.541 156.644 439.898 158.573L446.649 164.329L444.533 166.756L438.529 161.498ZM453.089 175.871H432.96V168.093H436.382V172.698H453.089V175.871Z" fill="white"/>
<path d="M249.185 225H235.825V223.267L243.425 215.853C244.349 214.947 244.972 214.173 245.292 213.533C245.612 212.876 245.772 212.209 245.772 211.533C245.772 210.538 245.425 209.756 244.732 209.187C244.056 208.618 243.078 208.333 241.798 208.333C239.736 208.333 238.154 209.018 237.052 210.387L235.185 209.08C235.914 208.138 236.856 207.409 238.012 206.893C239.167 206.378 240.5 206.12 242.012 206.12C243.949 206.12 245.496 206.582 246.652 207.507C247.807 208.431 248.385 209.693 248.385 211.293C248.385 212.271 248.172 213.204 247.745 214.093C247.318 214.964 246.509 215.978 245.318 217.133L239.532 222.813H249.185V225ZM258.473 225.213C256.997 225.213 255.682 224.831 254.526 224.067C253.388 223.284 252.49 222.173 251.833 220.733C251.193 219.293 250.873 217.604 250.873 215.667C250.873 213.711 251.193 212.013 251.833 210.573C252.49 209.133 253.388 208.031 254.526 207.267C255.682 206.502 256.997 206.12 258.473 206.12C259.966 206.12 261.282 206.502 262.419 207.267C263.575 208.031 264.473 209.133 265.113 210.573C265.753 212.013 266.073 213.711 266.073 215.667C266.073 217.622 265.753 219.32 265.113 220.76C264.473 222.2 263.575 223.302 262.419 224.067C261.264 224.831 259.948 225.213 258.473 225.213ZM258.473 222.973C259.984 222.973 261.193 222.342 262.099 221.08C263.006 219.818 263.459 218.013 263.459 215.667C263.459 213.32 263.006 211.516 262.099 210.253C261.193 208.991 259.984 208.36 258.473 208.36C256.962 208.36 255.753 208.991 254.846 210.253C253.957 211.516 253.513 213.32 253.513 215.667C253.513 218.013 253.957 219.818 254.846 221.08C255.753 222.342 256.962 222.973 258.473 222.973ZM281.2 225H267.84V223.267L275.44 215.853C276.365 214.947 276.987 214.173 277.307 213.533C277.627 212.876 277.787 212.209 277.787 211.533C277.787 210.538 277.44 209.756 276.747 209.187C276.072 208.618 275.094 208.333 273.814 208.333C271.752 208.333 270.169 209.018 269.067 210.387L267.2 209.08C267.929 208.138 268.872 207.409 270.027 206.893C271.183 206.378 272.516 206.12 274.027 206.12C275.965 206.12 277.512 206.582 278.667 207.507C279.823 208.431 280.4 209.693 280.4 211.293C280.4 212.271 280.187 213.204 279.76 214.093C279.334 214.964 278.525 215.978 277.334 217.133L271.547 222.813H281.2V225ZM289.475 213.827C292.159 213.827 294.115 214.324 295.342 215.32C296.586 216.298 297.208 217.667 297.208 219.427C297.208 220.511 296.942 221.489 296.408 222.36C295.893 223.231 295.102 223.924 294.035 224.44C292.986 224.956 291.697 225.213 290.168 225.213C288.853 225.213 287.582 225.009 286.355 224.6C285.128 224.173 284.133 223.613 283.368 222.92L284.488 220.947C285.111 221.551 285.919 222.04 286.915 222.413C287.928 222.787 288.995 222.973 290.115 222.973C291.537 222.973 292.631 222.662 293.395 222.04C294.177 221.4 294.568 220.547 294.568 219.48C294.568 218.324 294.142 217.453 293.288 216.867C292.435 216.28 290.968 215.987 288.888 215.987H284.675L285.662 206.333H296.168V208.467H287.822L287.288 213.827H289.475ZM301.509 225.133C301.029 225.133 300.621 224.973 300.283 224.653C299.945 224.316 299.776 223.898 299.776 223.4C299.776 222.902 299.945 222.493 300.283 222.173C300.621 221.836 301.029 221.667 301.509 221.667C301.989 221.667 302.398 221.836 302.736 222.173C303.074 222.493 303.243 222.902 303.243 223.4C303.243 223.898 303.074 224.316 302.736 224.653C302.398 224.973 301.989 225.133 301.509 225.133ZM312.52 225.213C311.044 225.213 309.728 224.831 308.573 224.067C307.435 223.284 306.537 222.173 305.88 220.733C305.24 219.293 304.92 217.604 304.92 215.667C304.92 213.711 305.24 212.013 305.88 210.573C306.537 209.133 307.435 208.031 308.573 207.267C309.728 206.502 311.044 206.12 312.52 206.12C314.013 206.12 315.328 206.502 316.466 207.267C317.622 208.031 318.52 209.133 319.16 210.573C319.8 212.013 320.12 213.711 320.12 215.667C320.12 217.622 319.8 219.32 319.16 220.76C318.52 222.2 317.622 223.302 316.466 224.067C315.311 224.831 313.995 225.213 312.52 225.213ZM312.52 222.973C314.031 222.973 315.24 222.342 316.146 221.08C317.053 219.818 317.506 218.013 317.506 215.667C317.506 213.32 317.053 211.516 316.146 210.253C315.24 208.991 314.031 208.36 312.52 208.36C311.008 208.36 309.8 208.991 308.893 210.253C308.004 211.516 307.56 213.32 307.56 215.667C307.56 218.013 308.004 219.818 308.893 221.08C309.8 222.342 311.008 222.973 312.52 222.973ZM332.314 215.213C333.47 215.587 334.358 216.164 334.981 216.947C335.621 217.729 335.941 218.662 335.941 219.747C335.941 220.849 335.638 221.818 335.034 222.653C334.43 223.471 333.567 224.102 332.447 224.547C331.327 224.991 330.021 225.213 328.527 225.213C327.016 225.213 325.701 224.991 324.581 224.547C323.478 224.102 322.625 223.471 322.021 222.653C321.434 221.836 321.141 220.867 321.141 219.747C321.141 218.644 321.452 217.711 322.074 216.947C322.696 216.164 323.585 215.587 324.741 215.213C323.798 214.858 323.07 214.333 322.554 213.64C322.056 212.929 321.807 212.102 321.807 211.16C321.807 210.129 322.083 209.24 322.634 208.493C323.203 207.729 323.994 207.142 325.007 206.733C326.021 206.324 327.194 206.12 328.527 206.12C329.878 206.12 331.061 206.324 332.074 206.733C333.087 207.142 333.87 207.729 334.421 208.493C334.99 209.24 335.274 210.129 335.274 211.16C335.274 212.102 335.016 212.929 334.501 213.64C333.985 214.333 333.256 214.858 332.314 215.213ZM328.527 208.093C327.265 208.093 326.261 208.378 325.514 208.947C324.767 209.498 324.394 210.262 324.394 211.24C324.394 212.2 324.758 212.956 325.487 213.507C326.234 214.058 327.247 214.333 328.527 214.333C329.807 214.333 330.821 214.058 331.567 213.507C332.314 212.938 332.687 212.182 332.687 211.24C332.687 210.262 332.314 209.498 331.567 208.947C330.821 208.378 329.807 208.093 328.527 208.093ZM328.527 223.213C330.021 223.213 331.194 222.902 332.047 222.28C332.901 221.64 333.327 220.778 333.327 219.693C333.327 218.627 332.901 217.782 332.047 217.16C331.194 216.52 330.021 216.2 328.527 216.2C327.052 216.2 325.887 216.52 325.034 217.16C324.198 217.782 323.781 218.627 323.781 219.693C323.781 220.778 324.198 221.64 325.034 222.28C325.887 222.902 327.052 223.213 328.527 223.213Z" fill="#BDBDBD"/>
</svg>
