<svg width="572" height="380" viewBox="0 0 572 380" fill="none" xmlns="http://www.w3.org/2000/svg">
<rect width="572" height="380" rx="20" fill="black" fill-opacity="0.33"/>
<path d="M107.211 175.28C105.614 175.28 104.079 175.041 102.607 174.564C101.155 174.067 99.9933 173.413 99.1222 172.604L100.398 169.836C101.207 170.561 102.223 171.153 103.447 171.609C104.691 172.065 105.946 172.293 107.211 172.293C108.808 172.293 110.001 172.013 110.789 171.453C111.577 170.873 111.971 170.116 111.971 169.182C111.971 168.498 111.743 167.938 111.287 167.502C110.851 167.067 110.291 166.724 109.607 166.476C108.943 166.227 108.03 165.957 106.869 165.667C105.334 165.293 104.079 164.91 103.104 164.516C102.13 164.121 101.3 163.51 100.616 162.68C99.9311 161.83 99.5889 160.71 99.5889 159.32C99.5889 158.138 99.8896 157.07 100.491 156.116C101.093 155.141 102.005 154.373 103.229 153.813C104.473 153.233 105.987 152.942 107.771 152.942C109.036 152.942 110.27 153.108 111.473 153.44C112.676 153.772 113.713 154.249 114.584 154.871L113.464 157.702C112.552 157.121 111.608 156.686 110.633 156.396C109.659 156.084 108.694 155.929 107.74 155.929C106.184 155.929 105.023 156.23 104.256 156.831C103.488 157.433 103.104 158.21 103.104 159.164C103.104 159.849 103.322 160.409 103.758 160.844C104.214 161.28 104.774 161.622 105.438 161.871C106.122 162.12 107.056 162.39 108.238 162.68C109.773 163.053 111.017 163.437 111.971 163.831C112.946 164.225 113.776 164.837 114.46 165.667C115.144 166.476 115.487 167.564 115.487 168.933C115.487 170.116 115.176 171.184 114.553 172.138C113.952 173.092 113.029 173.859 111.784 174.44C110.54 175 109.016 175.28 107.211 175.28ZM133.566 175H118.229V153.222H133.162V156.24H121.744V162.493H131.886V165.418H121.744V171.982H133.566V175ZM155.244 175H152.32L140.56 159.569V175H137.075V153.222H140L151.76 168.653V153.222H155.244V175ZM178.267 175H175.343L163.583 159.569V175H160.099V153.222H163.023L174.783 168.653V153.222H178.267V175ZM201.104 175H197.589V165.511H186.482V175H182.966V153.222H186.482V162.369H197.589V153.222H201.104V175ZM220.848 175H205.51V153.222H220.443V156.24H209.026V162.493H219.168V165.418H209.026V171.982H220.848V175ZM227.903 153.222V175H224.356V153.222H227.903ZM239.035 175.28C237.438 175.28 235.903 175.041 234.431 174.564C232.979 174.067 231.818 173.413 230.946 172.604L232.222 169.836C233.031 170.561 234.047 171.153 235.271 171.609C236.515 172.065 237.77 172.293 239.035 172.293C240.632 172.293 241.825 172.013 242.613 171.453C243.401 170.873 243.795 170.116 243.795 169.182C243.795 168.498 243.567 167.938 243.111 167.502C242.675 167.067 242.115 166.724 241.431 166.476C240.767 166.227 239.855 165.957 238.693 165.667C237.158 165.293 235.903 164.91 234.929 164.516C233.954 164.121 233.124 163.51 232.44 162.68C231.755 161.83 231.413 160.71 231.413 159.32C231.413 158.138 231.714 157.07 232.315 156.116C232.917 155.141 233.829 154.373 235.053 153.813C236.298 153.233 237.812 152.942 239.595 152.942C240.861 152.942 242.095 153.108 243.298 153.44C244.501 153.772 245.538 154.249 246.409 154.871L245.289 157.702C244.376 157.121 243.432 156.686 242.458 156.396C241.483 156.084 240.518 155.929 239.564 155.929C238.009 155.929 236.847 156.23 236.08 156.831C235.312 157.433 234.929 158.21 234.929 159.164C234.929 159.849 235.146 160.409 235.582 160.844C236.038 161.28 236.598 161.622 237.262 161.871C237.946 162.12 238.88 162.39 240.062 162.68C241.597 163.053 242.841 163.437 243.795 163.831C244.77 164.225 245.6 164.837 246.284 165.667C246.969 166.476 247.311 167.564 247.311 168.933C247.311 170.116 247 171.184 246.378 172.138C245.776 173.092 244.853 173.859 243.609 174.44C242.364 175 240.84 175.28 239.035 175.28ZM265.391 175H250.053V153.222H264.986V156.24H253.568V162.493H263.711V165.418H253.568V171.982H265.391V175ZM277.89 168.467C277.517 168.508 277.216 168.529 276.988 168.529H272.166V175H268.619V153.222H276.988C279.685 153.222 281.81 153.907 283.366 155.276C284.942 156.644 285.73 158.521 285.73 160.907C285.73 162.566 285.336 163.987 284.548 165.169C283.781 166.33 282.671 167.191 281.219 167.751L286.073 175H282.277L277.89 168.467ZM276.833 165.511C278.554 165.511 279.871 165.107 280.784 164.298C281.696 163.489 282.153 162.359 282.153 160.907C282.153 159.434 281.696 158.293 280.784 157.484C279.871 156.676 278.554 156.271 276.833 156.271H272.166V165.511H276.833ZM306.72 170.053V152.289H309.862V158.262H312.849V152.164H316.022V170.458H312.849V161.436H309.862V170.053H306.72ZM305.382 166.289C304.013 166.87 301.991 167.16 299.315 167.16H294.462V158.449H301.182V155.556H294.462V152.631H304.293V161.218H297.573V164.236H299.533C302.105 164.236 304.055 163.956 305.382 163.396V166.289ZM316.489 175.871H295.769V168.809H299.191V172.698H316.489V175.871ZM336.677 165.356V152.164H340.037V165.356H336.677ZM322.832 155.587V161.187H328.837C330.164 161.187 331.398 161.104 332.539 160.938C333.68 160.751 334.582 160.502 335.245 160.191V163.147C334.582 163.458 333.68 163.707 332.539 163.893C331.419 164.059 330.164 164.142 328.774 164.142H319.441V152.631H333.752V155.587H322.832ZM330.268 165.947C333.317 165.947 335.754 166.361 337.579 167.191C339.404 168 340.317 169.286 340.317 171.049C340.317 172.833 339.404 174.139 337.579 174.969C335.754 175.778 333.317 176.182 330.268 176.182C327.219 176.182 324.771 175.778 322.925 174.969C321.1 174.139 320.188 172.833 320.188 171.049C320.188 169.286 321.1 168 322.925 167.191C324.771 166.361 327.219 165.947 330.268 165.947ZM330.268 168.84C328.36 168.84 326.804 169.027 325.601 169.4C324.419 169.753 323.828 170.302 323.828 171.049C323.828 171.796 324.419 172.356 325.601 172.729C326.804 173.102 328.36 173.289 330.268 173.289C332.176 173.289 333.721 173.102 334.903 172.729C336.106 172.356 336.708 171.796 336.708 171.049C336.708 170.302 336.106 169.753 334.903 169.4C333.721 169.027 332.176 168.84 330.268 168.84ZM365.296 176.058H362.216V152.164H365.296V176.058ZM360.007 152.289V175.653H356.958V164.858H354.656V161.498H356.958V152.289H360.007ZM353.193 171.329C354.023 171.184 354.811 170.945 355.558 170.613V173.724C354.189 174.409 352.001 174.751 348.993 174.751H343.02V171.64H344.731V156.022H343.176V152.911H354.811V156.022H353.193V171.329ZM347.718 171.64C348.838 171.64 349.667 171.619 350.207 171.578V156.022H347.718V171.64ZM385.95 176.058V152.164H389.341V176.058H385.95ZM375.652 152.6C377.789 152.6 379.479 153.544 380.723 155.431C381.968 157.298 382.59 160.098 382.59 163.831C382.59 167.564 381.968 170.375 380.723 172.262C379.479 174.129 377.789 175.062 375.652 175.062C373.495 175.062 371.784 174.129 370.519 172.262C369.274 170.375 368.652 167.564 368.652 163.831C368.652 160.098 369.274 157.298 370.519 155.431C371.784 153.544 373.495 152.6 375.652 152.6ZM375.652 155.867C374.532 155.867 373.64 156.51 372.977 157.796C372.313 159.081 371.981 161.093 371.981 163.831C371.981 166.569 372.313 168.581 372.977 169.867C373.64 171.153 374.532 171.796 375.652 171.796C376.751 171.796 377.623 171.153 378.266 169.867C378.929 168.581 379.261 166.569 379.261 163.831C379.261 161.093 378.929 159.081 378.266 157.796C377.623 156.51 376.751 155.867 375.652 155.867ZM413.947 176.058H410.587V152.164H413.947V176.058ZM402.529 156.147C402.467 158.884 402.249 161.207 401.876 163.116L408.969 172.511L406.325 174.596L400.787 167.067C399.936 169.41 398.837 171.246 397.489 172.573C396.141 173.88 394.616 174.606 392.916 174.751V171.204C394.139 170.997 395.207 170.24 396.12 168.933C397.053 167.606 397.779 165.843 398.298 163.644C398.816 161.446 399.096 158.947 399.138 156.147H393.476V152.911H408.005V156.147H402.529ZM424.638 155.898V152.631H444.518V163.676H441.034V155.898H424.638ZM436.211 168.778V176.618H432.727V168.778H423.207V165.449H446.011V168.778H436.211ZM458.608 159.662C457.426 160.596 455.953 161.321 454.19 161.84C452.427 162.359 450.602 162.639 448.715 162.68V159.88C450.623 159.818 452.407 159.476 454.066 158.853C455.746 158.231 456.876 157.381 457.457 156.302H449.119V153.533H457.581V151.2H460.973V153.533H469.373V156.302H461.253C461.128 156.779 460.973 157.153 460.786 157.422L469.964 160.036L469.093 162.711L458.608 159.662ZM460.941 168.964H469.186V176.182H465.764V171.796H449.181V168.964H457.581V166.88H447.844V164.018H470.648V166.88H460.941V168.964Z" fill="white"/>
<path d="M249.185 225H235.825V223.267L243.425 215.853C244.349 214.947 244.972 214.173 245.292 213.533C245.612 212.876 245.772 212.209 245.772 211.533C245.772 210.538 245.425 209.756 244.732 209.187C244.056 208.618 243.078 208.333 241.798 208.333C239.736 208.333 238.154 209.018 237.052 210.387L235.185 209.08C235.914 208.138 236.856 207.409 238.012 206.893C239.167 206.378 240.5 206.12 242.012 206.12C243.949 206.12 245.496 206.582 246.652 207.507C247.807 208.431 248.385 209.693 248.385 211.293C248.385 212.271 248.172 213.204 247.745 214.093C247.318 214.964 246.509 215.978 245.318 217.133L239.532 222.813H249.185V225ZM258.473 225.213C256.997 225.213 255.682 224.831 254.526 224.067C253.388 223.284 252.49 222.173 251.833 220.733C251.193 219.293 250.873 217.604 250.873 215.667C250.873 213.711 251.193 212.013 251.833 210.573C252.49 209.133 253.388 208.031 254.526 207.267C255.682 206.502 256.997 206.12 258.473 206.12C259.966 206.12 261.282 206.502 262.419 207.267C263.575 208.031 264.473 209.133 265.113 210.573C265.753 212.013 266.073 213.711 266.073 215.667C266.073 217.622 265.753 219.32 265.113 220.76C264.473 222.2 263.575 223.302 262.419 224.067C261.264 224.831 259.948 225.213 258.473 225.213ZM258.473 222.973C259.984 222.973 261.193 222.342 262.099 221.08C263.006 219.818 263.459 218.013 263.459 215.667C263.459 213.32 263.006 211.516 262.099 210.253C261.193 208.991 259.984 208.36 258.473 208.36C256.962 208.36 255.753 208.991 254.846 210.253C253.957 211.516 253.513 213.32 253.513 215.667C253.513 218.013 253.957 219.818 254.846 221.08C255.753 222.342 256.962 222.973 258.473 222.973ZM281.2 225H267.84V223.267L275.44 215.853C276.365 214.947 276.987 214.173 277.307 213.533C277.627 212.876 277.787 212.209 277.787 211.533C277.787 210.538 277.44 209.756 276.747 209.187C276.072 208.618 275.094 208.333 273.814 208.333C271.752 208.333 270.169 209.018 269.067 210.387L267.2 209.08C267.929 208.138 268.872 207.409 270.027 206.893C271.183 206.378 272.516 206.12 274.027 206.12C275.965 206.12 277.512 206.582 278.667 207.507C279.823 208.431 280.4 209.693 280.4 211.293C280.4 212.271 280.187 213.204 279.76 214.093C279.334 214.964 278.525 215.978 277.334 217.133L271.547 222.813H281.2V225ZM289.475 213.827C292.159 213.827 294.115 214.324 295.342 215.32C296.586 216.298 297.208 217.667 297.208 219.427C297.208 220.511 296.942 221.489 296.408 222.36C295.893 223.231 295.102 223.924 294.035 224.44C292.986 224.956 291.697 225.213 290.168 225.213C288.853 225.213 287.582 225.009 286.355 224.6C285.128 224.173 284.133 223.613 283.368 222.92L284.488 220.947C285.111 221.551 285.919 222.04 286.915 222.413C287.928 222.787 288.995 222.973 290.115 222.973C291.537 222.973 292.631 222.662 293.395 222.04C294.177 221.4 294.568 220.547 294.568 219.48C294.568 218.324 294.142 217.453 293.288 216.867C292.435 216.28 290.968 215.987 288.888 215.987H284.675L285.662 206.333H296.168V208.467H287.822L287.288 213.827H289.475ZM301.509 225.133C301.029 225.133 300.621 224.973 300.283 224.653C299.945 224.316 299.776 223.898 299.776 223.4C299.776 222.902 299.945 222.493 300.283 222.173C300.621 221.836 301.029 221.667 301.509 221.667C301.989 221.667 302.398 221.836 302.736 222.173C303.074 222.493 303.243 222.902 303.243 223.4C303.243 223.898 303.074 224.316 302.736 224.653C302.398 224.973 301.989 225.133 301.509 225.133ZM314.653 225H312.04V208.467H307.826V206.333H314.653V225ZM330.661 225H328.047V208.467H323.834V206.333H330.661V225Z" fill="#BDBDBD"/>
</svg>
