<svg width="572" height="380" viewBox="0 0 572 380" fill="none" xmlns="http://www.w3.org/2000/svg">
<rect width="572" height="380" rx="20" fill="black" fill-opacity="0.33"/>
<path d="M149.418 168.467C149.044 168.508 148.744 168.529 148.516 168.529H143.693V175H140.147V153.222H148.516C151.212 153.222 153.338 153.907 154.893 155.276C156.47 156.644 157.258 158.521 157.258 160.907C157.258 162.566 156.864 163.987 156.076 165.169C155.308 166.33 154.199 167.191 152.747 167.751L157.6 175H153.804L149.418 168.467ZM148.36 165.511C150.081 165.511 151.399 165.107 152.311 164.298C153.224 163.489 153.68 162.359 153.68 160.907C153.68 159.434 153.224 158.293 152.311 157.484C151.399 156.676 150.081 156.271 148.36 156.271H143.693V165.511H148.36ZM163.539 169.773L161.393 175H157.753L167.117 153.222H170.602L179.935 175H176.233L174.086 169.773H163.539ZM168.828 156.924L164.69 166.911H172.935L168.828 156.924ZM185.344 153.222V175H181.798V153.222H185.344ZM193.739 153.222V171.951H204.659V175H190.192V153.222H193.739ZM215.113 165.542V171.018H212.095V165.542H206.526V162.711H212.095V157.204H215.113V162.711H220.713V165.542H215.113ZM244.516 164.889V176.058H241.156V152.164H244.516V161.467H247.503V164.889H244.516ZM237.205 152.911V159.787C237.205 162.856 236.655 165.521 235.556 167.782C234.478 170.022 232.974 171.733 231.045 172.916C229.116 174.098 226.907 174.699 224.418 174.72V171.391C226.617 171.391 228.473 170.821 229.987 169.68C231.522 168.519 232.601 166.828 233.223 164.609H224.418V161.373H233.783C233.803 161.083 233.814 160.627 233.814 160.004V156.116H224.418V152.911H237.205ZM253.131 156.209V164.018H269.962V167.284H249.677V152.911H269.713V156.209H253.131ZM248.277 175.031V171.733H271.082V175.031H248.277ZM297.204 176.058V152.164H300.595V176.058H297.204ZM283.702 156.147V171.516H289.613C290.691 171.516 291.76 171.412 292.817 171.204C293.896 170.997 294.788 170.727 295.493 170.396V173.6C294.809 173.953 293.917 174.233 292.817 174.44C291.718 174.647 290.609 174.751 289.489 174.751H280.28V152.911H293.689V156.147H283.702ZM324.579 164.889V176.058H321.219V152.164H324.579V161.467H327.565V164.889H324.579ZM313.472 156.147C313.41 158.719 313.192 161.052 312.819 163.147L319.819 172.511L317.143 174.596L311.699 167.129C310.869 169.452 309.79 171.267 308.463 172.573C307.136 173.88 305.632 174.606 303.952 174.751V171.204C305.176 170.997 306.244 170.24 307.156 168.933C308.069 167.606 308.774 165.843 309.272 163.644C309.77 161.446 310.029 158.947 310.05 156.147H304.512V152.911H318.792V156.147H313.472ZM346.509 169.898V152.164H349.869V169.898H346.509ZM335.744 152.32C337.196 152.32 338.472 152.621 339.571 153.222C340.691 153.803 341.552 154.633 342.153 155.711C342.755 156.769 343.055 157.982 343.055 159.351C343.055 160.72 342.755 161.944 342.153 163.022C341.552 164.08 340.691 164.91 339.571 165.511C338.472 166.092 337.196 166.382 335.744 166.382C334.292 166.382 333.006 166.092 331.886 165.511C330.787 164.91 329.937 164.08 329.335 163.022C328.734 161.944 328.433 160.72 328.433 159.351C328.433 157.982 328.734 156.769 329.335 155.711C329.937 154.633 330.787 153.803 331.886 153.222C333.006 152.621 334.292 152.32 335.744 152.32ZM335.744 155.307C334.583 155.307 333.639 155.67 332.913 156.396C332.187 157.101 331.824 158.086 331.824 159.351C331.824 160.616 332.187 161.612 332.913 162.338C333.639 163.064 334.583 163.427 335.744 163.427C336.926 163.427 337.88 163.064 338.606 162.338C339.332 161.612 339.695 160.616 339.695 159.351C339.695 158.086 339.332 157.101 338.606 156.396C337.88 155.67 336.926 155.307 335.744 155.307ZM350.366 172.698V175.871H330.455V167.844H333.878V172.698H350.366ZM360.591 155.244V152.351H380.378V160.409H376.987V155.244H360.591ZM381.933 164.764H359.129V161.871H367.28V157.64H370.64V161.871H381.933V164.764ZM370.547 166.6C373.595 166.6 376.043 166.994 377.889 167.782C379.755 168.55 380.689 169.753 380.689 171.391C380.689 173.03 379.755 174.233 377.889 175C376.043 175.788 373.595 176.182 370.547 176.182C367.498 176.182 365.04 175.788 363.173 175C361.327 174.233 360.404 173.03 360.404 171.391C360.404 169.732 361.327 168.519 363.173 167.751C365.019 166.984 367.477 166.6 370.547 166.6ZM370.547 173.444C372.434 173.444 374 173.279 375.244 172.947C376.489 172.594 377.111 172.076 377.111 171.391C377.111 170.727 376.489 170.219 375.244 169.867C374 169.514 372.434 169.338 370.547 169.338C368.618 169.338 367.031 169.514 365.787 169.867C364.563 170.199 363.951 170.707 363.951 171.391C363.951 172.076 364.573 172.594 365.818 172.947C367.062 173.279 368.638 173.444 370.547 173.444ZM406.57 175.031H383.766V171.733H393.472V166.724H385.166V152.911H405.17V166.724H396.863V171.733H406.57V175.031ZM401.81 163.427V156.209H388.557V163.427H401.81ZM426.727 152.164H430.087V169.898H426.727V160.689H422.838V157.609H426.727V152.164ZM416.46 161.622C415.61 163.074 414.531 164.246 413.224 165.138C411.918 166.009 410.466 166.507 408.869 166.631V163.427C410.57 163.199 411.949 162.379 413.007 160.969C414.064 159.559 414.676 157.796 414.842 155.68H409.149V152.631H423.647V155.68H418.233C418.213 156.634 418.057 157.661 417.767 158.76L424.424 163.893L422.527 166.444L416.46 161.622ZM430.491 175.871H410.362V167.969H413.784V172.698H430.491V175.871Z" fill="white"/>
<path d="M249.185 225H235.825V223.267L243.425 215.853C244.349 214.947 244.972 214.173 245.292 213.533C245.612 212.876 245.772 212.209 245.772 211.533C245.772 210.538 245.425 209.756 244.732 209.187C244.056 208.618 243.078 208.333 241.798 208.333C239.736 208.333 238.154 209.018 237.052 210.387L235.185 209.08C235.914 208.138 236.856 207.409 238.012 206.893C239.167 206.378 240.5 206.12 242.012 206.12C243.949 206.12 245.496 206.582 246.652 207.507C247.807 208.431 248.385 209.693 248.385 211.293C248.385 212.271 248.172 213.204 247.745 214.093C247.318 214.964 246.509 215.978 245.318 217.133L239.532 222.813H249.185V225ZM258.473 225.213C256.997 225.213 255.682 224.831 254.526 224.067C253.388 223.284 252.49 222.173 251.833 220.733C251.193 219.293 250.873 217.604 250.873 215.667C250.873 213.711 251.193 212.013 251.833 210.573C252.49 209.133 253.388 208.031 254.526 207.267C255.682 206.502 256.997 206.12 258.473 206.12C259.966 206.12 261.282 206.502 262.419 207.267C263.575 208.031 264.473 209.133 265.113 210.573C265.753 212.013 266.073 213.711 266.073 215.667C266.073 217.622 265.753 219.32 265.113 220.76C264.473 222.2 263.575 223.302 262.419 224.067C261.264 224.831 259.948 225.213 258.473 225.213ZM258.473 222.973C259.984 222.973 261.193 222.342 262.099 221.08C263.006 219.818 263.459 218.013 263.459 215.667C263.459 213.32 263.006 211.516 262.099 210.253C261.193 208.991 259.984 208.36 258.473 208.36C256.962 208.36 255.753 208.991 254.846 210.253C253.957 211.516 253.513 213.32 253.513 215.667C253.513 218.013 253.957 219.818 254.846 221.08C255.753 222.342 256.962 222.973 258.473 222.973ZM281.2 225H267.84V223.267L275.44 215.853C276.365 214.947 276.987 214.173 277.307 213.533C277.627 212.876 277.787 212.209 277.787 211.533C277.787 210.538 277.44 209.756 276.747 209.187C276.072 208.618 275.094 208.333 273.814 208.333C271.752 208.333 270.169 209.018 269.067 210.387L267.2 209.08C267.929 208.138 268.872 207.409 270.027 206.893C271.183 206.378 272.516 206.12 274.027 206.12C275.965 206.12 277.512 206.582 278.667 207.507C279.823 208.431 280.4 209.693 280.4 211.293C280.4 212.271 280.187 213.204 279.76 214.093C279.334 214.964 278.525 215.978 277.334 217.133L271.547 222.813H281.2V225ZM289.475 213.827C292.159 213.827 294.115 214.324 295.342 215.32C296.586 216.298 297.208 217.667 297.208 219.427C297.208 220.511 296.942 221.489 296.408 222.36C295.893 223.231 295.102 223.924 294.035 224.44C292.986 224.956 291.697 225.213 290.168 225.213C288.853 225.213 287.582 225.009 286.355 224.6C285.128 224.173 284.133 223.613 283.368 222.92L284.488 220.947C285.111 221.551 285.919 222.04 286.915 222.413C287.928 222.787 288.995 222.973 290.115 222.973C291.537 222.973 292.631 222.662 293.395 222.04C294.177 221.4 294.568 220.547 294.568 219.48C294.568 218.324 294.142 217.453 293.288 216.867C292.435 216.28 290.968 215.987 288.888 215.987H284.675L285.662 206.333H296.168V208.467H287.822L287.288 213.827H289.475ZM301.509 225.133C301.029 225.133 300.621 224.973 300.283 224.653C299.945 224.316 299.776 223.898 299.776 223.4C299.776 222.902 299.945 222.493 300.283 222.173C300.621 221.836 301.029 221.667 301.509 221.667C301.989 221.667 302.398 221.836 302.736 222.173C303.074 222.493 303.243 222.902 303.243 223.4C303.243 223.898 303.074 224.316 302.736 224.653C302.398 224.973 301.989 225.133 301.509 225.133ZM314.653 225H312.04V208.467H307.826V206.333H314.653V225ZM328.527 225.213C327.052 225.213 325.736 224.831 324.581 224.067C323.443 223.284 322.545 222.173 321.887 220.733C321.247 219.293 320.927 217.604 320.927 215.667C320.927 213.711 321.247 212.013 321.887 210.573C322.545 209.133 323.443 208.031 324.581 207.267C325.736 206.502 327.052 206.12 328.527 206.12C330.021 206.12 331.336 206.502 332.474 207.267C333.63 208.031 334.527 209.133 335.167 210.573C335.807 212.013 336.127 213.711 336.127 215.667C336.127 217.622 335.807 219.32 335.167 220.76C334.527 222.2 333.63 223.302 332.474 224.067C331.318 224.831 330.003 225.213 328.527 225.213ZM328.527 222.973C330.038 222.973 331.247 222.342 332.154 221.08C333.061 219.818 333.514 218.013 333.514 215.667C333.514 213.32 333.061 211.516 332.154 210.253C331.247 208.991 330.038 208.36 328.527 208.36C327.016 208.36 325.807 208.991 324.901 210.253C324.012 211.516 323.567 213.32 323.567 215.667C323.567 218.013 324.012 219.818 324.901 221.08C325.807 222.342 327.016 222.973 328.527 222.973Z" fill="#BDBDBD"/>
</svg>
